2067 4 1
1 697 659 677 305 30
2 644 624 224 606 30
3 571 553 467 591 30
4 518 538 500 386 30
5 618 602 232 621 30
6 549 565 568 475 30
7 313 671 655 674 30
8 496 512 515 394 30
9 644 624 171 224 30
10 571 467 414 591 30
11 252 697 677 305 30
12 333 538 518 386 30
13 657 697 677 308 30
14 211 618 232 621 30
15 313 292 671 674 30
16 515 512 373 394 30
17 568 565 454 475 30
18 487 512 378 383 30
19 697 252 677 308 30
20 467 553 426 591 30
21 183 644 224 606 30
22 697 264 659 305 30
23 538 345 500 386 30
24 512 497 520 373 30
25 679 292 671 656 30
26 573 565 550 454 30
27 626 211 618 603 30
28 164 595 594 630 30
29 577 541 542 407 30
30 647 648 683 245 30
31 629 164 595 594 30
32 647 682 648 245 30
33 430 578 564 545 30
34 670 684 651 268 30
35 617 631 598 187 30
36 525 349 492 511 30
37 618 602 188 232 30
38 549 565 475 431 30
39 269 313 671 655 30
40 496 512 394 350 30
41 691 677 688 271 30
42 352 532 529 518 30
43 624 190 635 638 30
44 425 84 103 83 30
45 141 182 122 121 30
46 45 46 344 65 30
47 19 263 34 20 30
48 264 141 122 121 30
49 103 84 183 83 30
50 45 426 46 65 30
51 19 34 345 20 30
52 250 313 655 674 30
53 568 549 475 412 30
54 496 515 331 394 30
55 602 169 232 621 30
56 190 191 635 638 30
57 532 353 352 529 30
58 582 433 434 585 30
59 688 691 271 272 30
60 538 333 345 386 30
61 183 644 171 224 30
62 252 264 697 305 30
63 414 467 426 591 30
64 349 525 492 495 30
65 430 548 578 545 30
66 631 601 598 187 30
67 684 654 651 268 30
68 192 227 214 638 30
69 435 470 457 585 30
70 295 691 273 308 30
71 532 376 389 354 30
72 223 605 643 182 30
73 466 552 590 425 30
74 304 658 696 263 30
75 537 344 385 499 30
76 586 440 81 82 30
77 639 120 197 119 30
78 358 488 523 521 30
79 515 47 48 67 30
80 621 124 143 123 30
81 674 36 21 22 30
82 568 105 85 86 30
83 624 604 227 638 30
84 498 532 389 518 30
85 470 571 551 585 30
86 691 657 677 308 30
87 457 470 551 585 30
88 498 532 376 389 30
89 227 604 214 638 30
90 691 295 657 308 30
91 695 283 119 137 30
92 589 61 445 43 30
93 99 202 642 81 30
94 363 61 535 43 30
95 201 641 119 137 30
96 444 99 588 81 30
97 282 694 17 30 30
98 216 618 593 632 30
99 512 526 487 378 30
100 565 459 579 540 30
101 685 297 646 671 30
102 46 45 344 499 30
103 182 605 122 121 30
104 552 84 425 83 30
105 19 658 263 20 30
106 453 572 551 591 30
107 604 625 644 210 30
108 498 538 372 519 30
109 622 168 601 636 30
110 569 411 548 583 30
111 495 330 530 516 30
112 675 654 689 249 30
113 414 453 551 591 30
114 644 604 210 171 30
115 538 498 372 333 30
116 192 624 227 638 30
117 435 571 470 585 30
118 389 532 354 518 30
119 691 677 273 308 30
120 565 549 579 431 30
121 602 618 188 632 30
122 496 526 512 350 30
123 685 269 671 655 30
124 553 45 426 46 30
125 183 84 606 83 30
126 264 122 659 121 30
127 345 19 20 500 30
128 435 582 433 446 30
129 623 191 603 638 30
130 353 532 497 517 30
131 676 691 272 656 30
132 434 570 585 550 30
133 617 598 185 187 30
134 651 670 268 266 30
135 428 430 564 545 30
136 349 347 492 511 30
137 40 370 390 59 30
138 28 309 289 14 30
139 135 228 208 116 30
140 471 78 451 97 30
141 476 428 453 545 30
142 314 651 266 291 30
143 185 598 210 233 30
144 372 395 347 492 30
145 512 348 378 383 30
146 688 271 284 272 30
147 582 433 446 434 30
148 190 191 203 635 30
149 353 365 352 529 30
150 492 330 495 516 30
151 168 622 601 598 30
152 411 569 548 545 30
153 654 675 651 249 30
154 590 466 425 413 30
155 223 643 170 182 30
156 251 304 696 263 30
157 537 344 332 385 30
158 550 565 429 454 30
159 211 618 603 186 30
160 292 267 671 656 30
161 512 348 497 373 30
162 440 100 81 82 30
163 197 120 138 119 30
164 47 569 48 67 30
165 124 675 143 123 30
166 85 105 622 86 30
167 36 21 22 516 30
168 295 302 296 646 30
169 457 464 458 540 30
170 221 215 214 593 30
171 297 685 269 671 30
172 459 565 579 431 30
173 526 512 350 378 30
174 618 216 188 632 30
175 685 269 655 713 30
176 602 188 712 632 30
177 579 549 714 431 30
178 711 526 496 350 30
179 602 169 188 232 30
180 475 549 431 412 30
181 250 313 269 655 30
182 331 496 394 350 30
183 676 691 688 272 30
184 570 582 434 585 30
185 353 532 517 529 30
186 635 191 623 638 30
187 169 602 637 621 30
188 549 568 584 412 30
189 655 250 674 690 30
190 496 515 531 331 30
191 603 618 593 186 30
192 589 61 43 42 30
193 17 536 30 16 30
194 695 119 118 137 30
195 80 99 642 81 30
196 694 17 30 16 30
197 99 80 588 81 30
198 119 641 118 137 30
199 61 535 43 42 30
200 84 468 104 85 30
201 46 47 387 66 30
202 142 225 123 122 30
203 35 306 21 20 30
204 411 548 583 715 30
205 330 716 495 530 30
206 168 601 636 717 30
207 654 718 689 249 30
208 226 84 104 85 30
209 469 47 46 66 30
210 307 142 123 122 30
211 388 35 21 20 30
212 565 573 568 454 30
213 512 520 515 373 30
214 211 626 618 621 30
215 292 679 671 674 30
216 677 691 273 271 30
217 624 192 190 638 30
218 532 352 354 518 30
219 215 214 593 638 30
220 457 458 585 540 30
221 691 295 296 646 30
222 460 430 578 564 30
223 525 349 511 379 30
224 617 631 187 217 30
225 670 684 268 298 30
226 263 19 34 33 30
227 141 182 121 140 30
228 425 103 102 83 30
229 344 45 65 64 30
230 103 183 102 83 30
231 264 141 121 140 30
232 34 19 345 33 30
233 45 426 65 64 30
234 313 250 292 674 30
235 331 515 373 394 30
236 454 568 475 412 30
237 169 211 232 621 30
238 616 228 134 116 30
239 27 309 14 669 30
240 569 453 572 545 30
241 622 625 598 210 30
242 675 651 291 678 30
243 519 372 492 516 30
244 691 295 273 271 30
245 190 192 214 638 30
246 376 532 352 354 30
247 433 435 457 585 30
248 679 251 696 263 30
249 573 590 425 413 30
250 643 626 170 182 30
251 520 537 344 332 30
252 47 469 67 66 30
253 35 36 388 21 30
254 105 226 104 85 30
255 143 307 142 123 30
256 306 35 34 20 30
257 84 468 103 104 30
258 65 46 387 66 30
259 141 225 142 122 30
260 35 306 36 21 30
261 47 67 387 66 30
262 468 105 104 85 30
263 225 143 142 123 30
264 635 194 628 623 30
265 676 688 681 275 30
266 522 356 517 529 30
267 575 570 582 437 30
268 469 46 65 66 30
269 226 84 103 104 30
270 307 141 142 122 30
271 34 35 388 20 30
272 468 568 105 85 30
273 515 47 67 387 30
274 225 621 143 123 30
275 306 674 36 21 30
276 358 325 488 521 30
277 272 691 296 656 30
278 458 434 585 550 30
279 532 353 497 377 30
280 191 215 603 638 30
281 459 465 564 540 30
282 617 216 222 593 30
283 670 297 303 646 30
284 511 487 378 384 30
285 576 574 555 436 30
286 522 501 356 524 30
287 349 716 525 495 30
288 601 631 717 187 30
289 430 548 715 578 30
290 718 654 684 268 30
291 469 569 47 67 30
292 105 226 85 622 30
293 143 675 307 123 30
294 36 388 21 516 30
295 511 498 487 384 30
296 604 617 222 593 30
297 657 670 303 646 30
298 465 551 564 540 30
299 428 470 414 551 30
300 604 185 171 227 30
301 498 347 333 389 30
302 46 47 520 387 30
303 84 573 468 85 30
304 225 626 123 122 30
305 306 679 21 20 30
306 500 380 335 386 30
307 553 461 416 467 30
308 659 254 305 299 30
309 173 218 224 606 30
310 45 381 499 527 30
311 605 219 633 121 30
312 603 215 593 638 30
313 458 585 540 550 30
314 296 691 646 656 30
315 565 429 454 475 30
316 267 313 292 671 30
317 211 618 186 232 30
318 512 348 373 394 30
319 687 659 121 299 30
320 19 528 500 380 30
321 45 581 553 461 30
322 395 349 347 492 30
323 598 185 187 233 30
324 476 430 428 545 30
325 651 268 314 266 30
326 571 553 416 467 30
327 624 173 224 606 30
328 677 659 254 305 30
329 518 500 335 386 30
330 549 584 719 412 30
331 250 655 722 690 30
332 169 602 721 637 30
333 720 496 531 331 30
334 489 358 523 504 30
335 208 228 613 116 30
336 78 560 471 451 30
337 507 40 370 390 30
338 309 289 14 667 30
339 19 528 380 33 30
340 605 626 643 182 30
341 658 679 696 263 30
342 537 520 344 499 30
343 552 573 590 425 30
344 598 625 604 210 30
345 572 453 551 545 30
346 372 498 519 492 30
347 185 617 187 217 30
348 670 268 266 298 30
349 349 347 511 379 30
350 430 460 428 564 30
351 183 625 644 606 30
352 697 264 678 659 30
353 538 345 519 500 30
354 426 553 572 591 30
355 473 422 558 447 30
356 179 230 204 611 30
357 665 260 285 311 30
358 341 366 505 392 30
359 459 564 579 540 30
360 617 216 593 632 30
361 670 685 297 646 30
362 526 511 487 378 30
363 698 113 323 114 30
364 645 242 76 75 30
365 592 485 38 37 30
366 404 539 11 12 30
367 252 677 254 305 30
368 416 571 467 414 30
369 171 624 173 224 30
370 333 518 335 386 30
371 645 242 189 76 30
372 539 404 351 12 30
373 191 190 215 638 30
374 691 271 272 296 30
375 532 353 377 352 30
376 434 433 458 585 30
377 219 172 223 605 30
378 253 658 304 300 30
379 334 385 381 499 30
380 415 466 462 552 30
381 465 457 551 540 30
382 295 657 303 646 30
383 498 487 384 376 30
384 604 222 214 593 30
385 618 216 186 188 30
386 297 269 267 671 30
387 565 459 429 431 30
388 512 348 350 378 30
389 84 573 425 468 30
390 182 626 225 122 30
391 679 306 263 20 30
392 46 520 344 387 30
393 626 211 225 621 30
394 568 573 468 454 30
395 515 520 387 373 30
396 292 679 674 306 30
397 348 497 373 332 30
398 413 550 429 454 30
399 603 211 186 170 30
400 251 267 292 656 30
401 487 384 376 383 30
402 222 221 214 593 30
403 302 295 303 646 30
404 464 457 465 540 30
405 334 501 499 527 30
406 172 607 605 633 30
407 660 253 686 658 30
408 580 415 552 554 30
409 604 617 185 222 30
410 428 465 551 564 30
411 670 266 657 303 30
412 347 498 511 384 30
413 558 473 447 544 30
414 650 665 285 311 30
415 505 366 491 392 30
416 230 597 204 611 30
417 501 522 356 517 30
418 497 348 383 377 30
419 572 469 47 46 30
420 678 307 123 122 30
421 625 84 226 85 30
422 388 21 519 20 30
423 253 686 658 300 30
424 415 462 580 552 30
425 219 172 605 633 30
426 381 334 499 527 30
427 659 687 661 254 30
428 581 555 553 416 30
429 528 502 500 335 30
430 608 173 606 634 30
431 559 472 448 421 30
432 259 664 286 310 30
433 229 178 205 612 30
434 391 367 506 340 30
435 40 41 370 59 30
436 78 79 451 97 30
437 28 289 15 14 30
438 208 135 116 117 30
439 173 218 606 634 30
440 659 687 254 299 30
441 528 500 380 335 30
442 581 553 461 416 30
443 226 625 622 210 30
444 307 675 291 678 30
445 388 372 519 516 30
446 453 469 569 572 30
447 225 626 621 123 30
448 520 47 515 387 30
449 573 568 468 85 30
450 679 674 306 21 30
451 691 295 271 296 30
452 433 457 458 585 30
453 215 190 214 638 30
454 376 532 377 352 30
455 297 302 303 646 30
456 216 221 222 593 30
457 464 465 459 540 30
458 487 378 384 383 30
459 557 576 587 418 30
460 175 640 629 610 30
461 256 693 682 663 30
462 523 534 504 337 30
463 174 639 609 630 30
464 586 417 577 556 30
465 683 662 692 255 30
466 503 336 533 524 30
467 587 589 445 43 30
468 202 642 81 640 30
469 283 693 695 119 30
470 586 444 588 81 30
471 694 692 282 17 30
472 641 639 201 119 30
473 363 535 533 43 30
474 445 61 62 43 30
475 99 100 202 81 30
476 283 138 119 137 30
477 61 363 62 43 30
478 99 444 100 81 30
479 282 17 31 30 30
480 138 201 119 137 30
481 498 372 347 492 30
482 598 604 185 210 30
483 453 428 551 545 30
484 188 602 712 721 30
485 549 719 714 431 30
486 720 711 496 350 30
487 655 269 722 713 30
488 25 404 11 12 30
489 485 56 38 37 30
490 113 323 114 132 30
491 242 94 76 75 30
492 84 625 226 183 30
493 264 307 678 122 30
494 345 388 519 20 30
495 426 469 572 46 30
496 510 507 342 390 30
497 563 560 423 471 30
498 261 309 669 667 30
499 180 228 616 613 30
500 420 557 589 587 30
501 177 642 640 610 30
502 534 536 504 339 30
503 663 693 695 258 30
504 503 535 533 338 30
505 586 419 556 588 30
506 176 639 641 609 30
507 692 662 694 257 30
508 113 130 1 324 30
509 75 243 92 1 30
510 405 11 1 23 30
511 486 54 37 1 30
512 371 375 28 14 30
513 135 290 294 116 30
514 456 452 40 59 30
515 213 209 78 97 30
516 188 216 712 632 30
517 459 579 714 431 30
518 685 297 269 713 30
519 711 526 350 378 30
520 207 99 202 642 30
521 61 450 589 445 30
522 364 536 369 30 30
523 695 283 137 288 30
524 61 363 535 368 30
525 287 694 282 30 30
526 206 641 201 137 30
527 99 449 444 588 30
528 460 465 428 564 30
529 185 617 217 222 30
530 266 670 298 303 30
531 347 511 379 384 30
532 489 358 504 361 30
533 506 391 340 362 30
534 84 226 103 183 30
535 426 469 46 65 30
536 264 141 307 122 30
537 345 34 388 20 30
538 547 479 546 562 30
539 600 599 615 236 30
540 493 509 494 398 30
541 653 652 668 317 30
542 141 182 225 122 30
543 263 306 34 20 30
544 46 344 65 387 30
545 425 84 468 103 30
546 490 391 506 362 30
547 27 14 13 669 30
548 115 616 134 116 30
549 682 256 663 277 30
550 196 175 629 610 30
551 557 576 418 439 30
552 358 523 504 337 30
553 683 662 255 276 30
554 503 357 336 524 30
555 195 174 609 630 30
556 417 577 556 438 30
557 528 502 335 360 30
558 687 661 254 279 30
559 198 173 608 634 30
560 555 581 441 416 30
561 451 79 449 98 30
562 289 287 29 15 30
563 41 60 368 370 30
564 206 208 117 136 30
565 676 688 275 272 30
566 570 582 437 434 30
567 191 194 635 623 30
568 356 353 517 529 30
569 459 465 460 564 30
570 511 378 379 384 30
571 298 670 297 303 30
572 217 617 216 222 30
573 269 313 267 671 30
574 186 618 188 232 30
575 512 348 394 350 30
576 565 429 475 431 30
577 458 434 550 413 30
578 215 191 603 170 30
579 272 296 251 656 30
580 497 353 332 377 30
581 501 334 359 527 30
582 253 660 686 278 30
583 172 197 607 633 30
584 440 415 580 554 30
585 442 408 542 407 30
586 280 648 245 246 30
587 164 165 199 595 30
588 326 489 327 361 30
589 489 326 327 362 30
590 648 281 245 246 30
591 165 164 200 595 30
592 408 443 542 407 30
593 230 199 596 611 30
594 442 473 558 543 30
595 490 505 392 361 30
596 435 582 446 436 30
597 307 675 678 123 30
598 469 569 572 47 30
599 21 388 519 516 30
600 226 625 85 622 30
601 675 249 307 291 30
602 453 469 411 569 30
603 168 226 622 210 30
604 330 372 388 516 30
605 295 691 657 646 30
606 214 604 593 638 30
607 551 457 585 540 30
608 498 532 487 376 30
609 228 212 616 134 30
610 27 293 309 669 30
611 331 515 67 387 30
612 674 250 306 36 30
613 468 568 412 105 30
614 169 225 621 143 30
615 326 358 489 361 30
616 63 441 62 44 30
617 198 100 101 82 30
618 120 279 139 138 30
619 582 571 574 436 30
620 529 355 518 521 30
621 624 193 627 635 30
622 677 680 688 274 30
623 240 113 114 132 30
624 25 11 321 12 30
625 118 695 137 288 30
626 536 369 30 16 30
627 450 61 589 42 30
628 207 80 99 642 30
629 61 535 42 368 30
630 80 449 99 588 30
631 287 694 30 16 30
632 641 206 118 137 30
633 197 120 139 138 30
634 100 440 101 82 30
635 359 63 62 44 30
636 202 177 642 640 30
637 693 283 695 258 30
638 589 420 587 445 30
639 536 534 364 339 30
640 419 586 444 588 30
641 639 176 641 201 30
642 692 694 282 257 30
643 535 363 533 338 30
644 411 430 548 715 30
645 718 654 268 249 30
646 349 330 716 495 30
647 168 601 717 187 30
648 192 624 171 227 30
649 677 252 273 308 30
650 333 389 354 518 30
651 571 435 470 414 30
652 13 301 669 672 30
653 510 513 39 382 30
654 463 566 563 77 30
655 220 115 619 616 30
656 541 582 574 406 30
657 680 647 688 244 30
658 488 325 529 521 30
659 627 163 594 635 30
660 472 544 559 448 30
661 491 391 367 506 30
662 286 664 650 310 30
663 205 229 612 597 30
664 163 594 635 628 30
665 325 522 488 529 30
666 688 647 681 244 30
667 541 575 582 406 30
668 441 581 461 416 30
669 380 528 335 360 30
670 198 218 173 634 30
671 687 254 299 279 30
672 634 198 82 640 30
673 581 587 441 44 30
674 120 693 687 279 30
675 330 703 716 530 30
676 706 411 583 715 30
677 704 168 636 717 30
678 689 718 705 249 30
679 101 102 218 634 30
680 528 380 33 32 30
681 300 686 33 32 30
682 580 462 101 102 30
683 219 197 172 633 30
684 253 686 300 278 30
685 440 415 462 580 30
686 334 381 359 527 30
687 452 60 450 41 30
688 209 207 79 98 30
689 117 290 288 136 30
690 369 371 29 15 30
691 189 242 94 76 30
692 432 485 56 38 30
693 351 404 25 12 30
694 114 323 270 132 30
695 533 359 44 527 30
696 18 686 692 278 30
697 440 586 580 82 30
698 120 639 197 633 30
699 708 169 721 637 30
700 709 720 531 331 30
701 469 411 569 67 30
702 105 168 226 622 30
703 36 330 388 516 30
704 143 675 249 307 30
705 619 235 616 600 30
706 513 510 494 397 30
707 547 478 566 563 30
708 669 316 653 672 30
709 84 573 552 425 30
710 605 626 182 122 30
711 658 679 263 20 30
712 520 46 344 499 30
713 576 555 418 436 30
714 356 501 336 524 30
715 560 563 78 471 30
716 507 510 40 390 30
717 309 14 669 667 30
718 228 616 613 116 30
719 509 514 346 13 30
720 615 620 184 77 30
721 668 115 673 265 30
722 567 427 562 39 30
723 11 1 23 324 30
724 54 405 37 1 30
725 243 113 130 1 30
726 486 75 92 1 30
727 617 598 604 185 30
728 347 498 492 511 30
729 551 428 564 545 30
730 651 670 266 657 30
731 717 631 701 187 30
732 716 349 525 699 30
733 700 430 715 578 30
734 718 684 702 268 30
735 366 341 505 508 30
736 614 179 204 611 30
737 422 558 447 561 30
738 666 665 260 285 30
739 172 607 623 605 30
740 253 660 676 658 30
741 415 570 552 554 30
742 501 334 499 517 30
743 553 461 467 426 30
744 500 345 380 386 30
745 264 659 305 299 30
746 218 183 224 606 30
747 465 457 428 551 30
748 185 604 222 214 30
749 266 295 657 303 30
750 347 498 384 376 30
751 79 451 97 98 30
752 41 60 370 59 30
753 208 135 117 136 30
754 28 289 29 15 30
755 198 101 634 82 30
756 180 228 212 616 30
757 455 563 423 471 30
758 309 293 261 669 30
759 342 510 390 374 30
760 358 325 326 488 30
761 331 515 387 373 30
762 250 292 674 306 30
763 468 568 454 412 30
764 225 211 169 621 30
765 84 625 183 606 30
766 553 426 572 46 30
767 519 345 20 500 30
768 678 264 122 659 30
769 456 452 561 40 30
770 614 213 209 78 30
771 375 371 508 14 30
772 290 666 294 116 30
773 18 686 278 32 30
774 440 580 101 82 30
775 442 408 543 542 30
776 199 165 596 595 30
777 489 490 327 361 30
778 648 280 649 246 30
779 165 200 596 595 30
780 281 648 649 246 30
781 490 489 327 362 30
782 408 443 543 542 30
783 442 473 422 558 30
784 179 199 230 611 30
785 505 341 392 361 30
786 372 498 347 333 30
787 453 428 414 551 30
788 604 185 210 171 30
789 1 130 23 324 30
790 54 405 1 23 30
791 92 243 130 1 30
792 486 92 54 1 30
793 321 11 672 12 30
794 619 240 113 114 30
795 235 237 616 600 30
796 316 318 669 653 30
797 547 478 563 480 30
798 494 510 399 397 30
799 347 498 376 389 30
800 295 266 657 308 30
801 457 470 428 551 30
802 604 185 227 214 30
803 191 194 203 635 30
804 582 446 437 434 30
805 365 353 356 529 30
806 688 284 275 272 30
807 662 281 259 257 30
808 421 443 419 556 30
809 207 80 79 98 30
810 118 117 288 136 30
811 450 60 42 41 30
812 369 29 16 15 30
813 29 287 16 15 30
814 118 206 117 136 30
815 60 42 41 368 30
816 79 80 449 98 30
817 54 1 2 23 30
818 1 130 2 23 30
819 92 54 1 2 30
820 130 92 1 2 30
821 137 118 288 136 30
822 207 80 98 99 30
823 60 61 450 42 30
824 369 29 30 16 30
825 60 61 42 368 30
826 29 287 30 16 30
827 206 118 137 136 30
828 80 449 98 99 30
829 301 316 669 672 30
830 510 513 382 397 30
831 235 220 619 616 30
832 478 463 566 563 30
833 450 420 558 589 30
834 536 339 369 505 30
835 611 207 177 642 30
836 535 506 368 338 30
837 176 206 612 641 30
838 349 525 699 379 30
839 631 701 187 217 30
840 684 702 268 298 30
841 460 430 700 578 30
842 280 663 260 258 30
843 79 560 78 451 30
844 289 15 14 667 30
845 613 208 116 117 30
846 507 40 41 370 30
847 455 463 563 77 30
848 39 510 382 374 30
849 501 356 334 517 30
850 544 560 559 448 30
851 507 491 367 506 30
852 205 612 613 597 30
853 286 664 667 650 30
854 574 571 555 436 30
855 620 645 189 76 30
856 514 539 351 12 30
857 371 28 15 14 30
858 40 452 41 59 30
859 135 290 116 117 30
860 209 79 78 97 30
861 175 177 640 610 30
862 534 504 337 339 30
863 256 693 663 258 30
864 420 557 587 418 30
865 174 639 176 609 30
866 417 586 419 556 30
867 336 503 533 338 30
868 662 692 255 257 30
869 658 304 300 263 30
870 385 344 381 499 30
871 466 462 552 425 30
872 223 219 605 182 30
873 79 559 451 449 30
874 506 41 368 370 30
875 612 206 208 117 30
876 664 287 289 15 30
877 701 147 216 712 30
878 297 702 154 713 30
879 711 699 378 71 30
880 109 459 700 714 30
881 435 571 582 436 30
882 422 447 424 561 30
883 262 666 260 285 30
884 179 614 204 181 30
885 341 366 343 508 30
886 608 198 634 640 30
887 687 693 661 279 30
888 534 502 528 360 30
889 555 581 587 441 30
890 425 573 413 454 30
891 251 679 292 263 30
892 520 344 373 332 30
893 626 211 170 182 30
894 666 650 665 285 30
895 505 366 508 491 30
896 597 614 204 611 30
897 558 447 561 544 30
898 686 660 692 278 30
899 586 440 580 554 30
900 197 639 607 633 30
901 501 359 533 527 30
902 645 242 167 189 30
903 329 539 404 351 30
904 550 458 413 429 30
905 215 603 186 170 30
906 348 497 332 377 30
907 251 296 267 656 30
908 199 596 611 610 30
909 504 505 490 361 30
910 558 442 543 557 30
911 503 490 506 362 30
912 290 665 117 288 30
913 452 450 558 41 30
914 207 611 209 79 30
915 369 505 371 15 30
916 318 669 653 652 30
917 510 493 494 399 30
918 616 237 599 600 30
919 547 563 546 480 30
920 380 528 360 32 30
921 198 101 218 634 30
922 534 360 31 364 30
923 163 196 193 627 30
924 244 680 277 274 30
925 325 358 355 521 30
926 276 681 244 275 30
927 438 575 406 437 30
928 194 195 163 628 30
929 645 619 620 234 30
930 396 513 539 514 30
931 650 649 665 311 30
932 505 491 490 392 30
933 558 473 544 543 30
934 230 596 597 611 30
935 566 483 592 75 30
936 645 619 240 113 30
937 11 698 321 672 30
938 402 513 37 539 30
939 462 440 580 101 30
940 686 300 278 32 30
941 477 547 478 566 30
942 316 653 672 315 30
943 494 513 397 396 30
944 235 619 234 600 30
945 510 507 399 342 30
946 560 563 423 480 30
947 237 180 616 613 30
948 318 261 669 667 30
949 269 250 655 722 30
950 720 496 331 350 30
951 169 602 188 721 30
952 549 719 431 412 30
953 652 286 650 247 30
954 166 205 599 597 30
955 409 546 544 448 30
956 491 493 367 328 30
957 409 546 448 480 30
958 367 493 399 328 30
959 237 166 205 599 30
960 318 286 652 247 30
961 342 507 370 390 30
962 228 180 208 613 30
963 289 309 261 667 30
964 560 423 471 451 30
965 209 79 97 98 30
966 452 60 41 59 30
967 371 28 29 15 30
968 135 290 117 136 30
969 493 507 367 399 30
970 546 560 448 480 30
971 205 237 599 613 30
972 318 286 667 652 30
973 456 561 562 40 30
974 375 508 509 14 30
975 614 615 213 78 30
976 666 668 294 116 30
977 196 177 175 610 30
978 256 663 277 258 30
979 420 557 418 439 30
980 504 358 337 339 30
981 419 417 556 438 30
982 357 503 336 338 30
983 195 174 176 609 30
984 662 255 276 257 30
985 576 418 439 436 30
986 357 356 336 524 30
987 237 599 600 236 30
988 479 547 546 480 30
989 653 318 652 317 30
990 493 494 399 398 30
991 237 616 599 613 30
992 563 560 546 480 30
993 510 507 493 399 30
994 669 318 667 652 30
995 489 504 490 361 30
996 543 442 542 557 30
997 280 663 648 649 30
998 199 596 610 595 30
999 503 489 490 362 30
1000 543 443 556 542 30
1001 200 596 595 609 30
1002 281 648 662 649 30
1003 424 456 561 562 30
1004 343 375 508 509 30
1005 668 262 666 294 30
1006 615 614 213 181 30
1007 391 491 490 506 30
1008 612 229 596 597 30
1009 650 664 649 310 30
1010 472 544 543 559 30
1011 547 567 479 562 30
1012 494 509 514 398 30
1013 653 668 673 317 30
1014 620 600 615 236 30
1015 698 113 324 322 30
1016 645 243 241 75 30
1017 539 405 403 11 30
1018 592 486 484 37 30
1019 477 547 567 479 30
1020 315 653 673 317 30
1021 396 494 514 398 30
1022 620 234 600 236 30
1023 390 40 59 58 30
1024 96 78 471 97 30
1025 28 27 309 14 30
1026 228 135 134 116 30
1027 695 283 288 258 30
1028 364 536 339 369 30
1029 177 207 202 642 30
1030 450 420 589 445 30
1031 363 535 368 338 30
1032 176 206 641 201 30
1033 449 419 444 588 30
1034 694 287 282 257 30
1035 649 281 246 310 30
1036 391 490 327 362 30
1037 229 165 200 596 30
1038 408 443 472 543 30
1039 709 67 6 401 30
1040 239 708 10 143 30
1041 479 474 546 562 30
1042 393 509 493 398 30
1043 652 668 317 312 30
1044 615 599 231 236 30
1045 113 131 323 132 30
1046 404 25 11 24 30
1047 94 242 93 75 30
1048 56 485 55 37 30
1049 677 659 661 254 30
1050 555 571 553 416 30
1051 502 518 500 335 30
1052 173 624 608 606 30
1053 113 130 324 322 30
1054 243 241 75 92 30
1055 484 486 54 37 30
1056 405 403 11 23 30
1057 213 615 77 78 30
1058 509 375 14 13 30
1059 668 115 294 116 30
1060 456 562 39 40 30
1061 369 536 505 16 30
1062 207 611 80 642 30
1063 695 118 665 288 30
1064 558 450 589 42 30
1065 287 664 694 16 30
1066 206 612 641 118 30
1067 80 559 449 588 30
1068 535 506 42 368 30
1069 615 620 236 184 30
1070 479 567 427 562 30
1071 668 673 317 265 30
1072 514 509 346 398 30
1073 614 179 209 181 30
1074 452 422 424 561 30
1075 262 666 290 260 30
1076 341 343 371 508 30
1077 614 179 611 209 30
1078 505 341 371 508 30
1079 290 666 665 260 30
1080 422 452 558 561 30
1081 253 676 275 272 30
1082 415 570 437 434 30
1083 194 191 172 623 30
1084 356 353 334 517 30
1085 520 344 387 373 30
1086 292 679 306 263 30
1087 626 211 182 225 30
1088 573 425 468 454 30
1089 382 510 397 374 30
1090 316 293 301 669 30
1091 478 455 463 563 30
1092 212 220 235 616 30
1093 536 504 339 505 30
1094 558 420 557 589 30
1095 177 611 642 610 30
1096 612 176 641 609 30
1097 535 503 506 338 30
1098 477 547 566 567 30
1099 619 620 234 600 30
1100 494 513 396 514 30
1101 653 672 315 673 30
1102 371 343 375 508 30
1103 213 614 209 181 30
1104 456 452 424 561 30
1105 666 262 290 294 30
1106 290 666 116 117 30
1107 614 209 79 78 30
1108 508 371 15 14 30
1109 452 561 40 41 30
1110 240 131 113 132 30
1111 483 94 93 75 30
1112 25 11 24 321 30
1113 402 56 55 37 30
1114 217 701 147 216 30
1115 702 298 297 154 30
1116 109 459 460 700 30
1117 378 699 379 71 30
1118 506 507 41 370 30
1119 289 664 15 667 30
1120 612 208 613 117 30
1121 559 560 79 451 30
1122 507 367 399 342 30
1123 448 560 423 480 30
1124 180 237 205 613 30
1125 261 318 286 667 30
1126 586 417 419 444 30
1127 639 174 176 201 30
1128 363 336 533 338 30
1129 692 282 255 257 30
1130 175 177 202 640 30
1131 534 337 364 339 30
1132 420 587 445 418 30
1133 283 693 256 258 30
1134 608 175 640 629 30
1135 576 555 587 418 30
1136 693 661 256 682 30
1137 534 523 502 337 30
1138 586 417 554 577 30
1139 174 639 630 607 30
1140 336 501 533 524 30
1141 660 683 692 255 30
1142 481 706 67 6 30
1143 105 8 238 704 30
1144 10 143 705 319 30
1145 4 703 400 36 30
1146 555 571 416 436 30
1147 204 614 231 181 30
1148 447 474 424 561 30
1149 366 393 343 508 30
1150 262 666 285 312 30
1151 199 165 230 596 30
1152 280 649 246 311 30
1153 408 473 442 543 30
1154 327 490 392 361 30
1155 645 243 240 167 30
1156 698 324 321 248 30
1157 329 402 405 539 30
1158 486 483 592 410 30
1159 397 494 396 398 30
1160 547 477 478 479 30
1161 316 653 315 317 30
1162 234 235 600 236 30
1163 11 698 324 321 30
1164 405 402 37 539 30
1165 483 486 592 75 30
1166 243 645 240 113 30
1167 558 450 42 41 30
1168 505 369 16 15 30
1169 665 118 117 288 30
1170 611 207 80 79 30
1171 80 559 79 449 30
1172 287 664 16 15 30
1173 206 612 118 117 30
1174 42 506 41 368 30
1175 235 237 600 236 30
1176 478 547 479 480 30
1177 399 494 397 398 30
1178 316 318 653 317 30
1179 264 307 291 678 30
1180 469 453 426 572 30
1181 372 345 388 519 30
1182 625 226 183 210 30
1183 57 39 382 374 30
1184 463 455 95 77 30
1185 452 558 561 41 30
1186 666 290 665 117 30
1187 371 505 508 15 30
1188 611 614 209 79 30
1189 290 665 288 260 30
1190 422 452 450 558 30
1191 341 369 505 371 30
1192 611 179 207 209 30
1193 262 668 265 294 30
1194 343 375 509 346 30
1195 427 456 424 562 30
1196 213 615 181 184 30
1197 237 180 212 616 30
1198 563 455 423 480 30
1199 399 510 342 374 30
1200 261 293 318 669 30
1201 286 667 652 650 30
1202 599 205 613 597 30
1203 493 507 491 367 30
1204 546 560 544 448 30
1205 248 315 673 270 30
1206 477 567 410 432 30
1207 474 561 546 562 30
1208 599 614 615 231 30
1209 668 652 666 312 30
1210 508 393 509 493 30
1211 473 408 472 543 30
1212 165 229 230 596 30
1213 490 391 327 392 30
1214 246 649 310 311 30
1215 624 192 171 173 30
1216 677 252 254 273 30
1217 435 571 416 414 30
1218 354 333 518 335 30
1219 368 506 340 338 30
1220 206 178 176 612 30
1221 114 270 133 132 30
1222 189 94 95 76 30
1223 57 432 56 38 30
1224 26 351 25 12 30
1225 451 559 421 449 30
1226 206 178 612 208 30
1227 368 506 370 340 30
1228 287 664 289 259 30
1229 420 442 557 439 30
1230 504 358 339 361 30
1231 663 280 277 258 30
1232 199 177 196 610 30
1233 200 195 176 609 30
1234 357 503 338 362 30
1235 281 662 276 257 30
1236 443 419 556 438 30
1237 179 611 207 177 30
1238 339 341 369 505 30
1239 420 422 450 558 30
1240 94 463 95 76 30
1241 382 57 56 38 30
1242 301 26 25 12 30
1243 220 114 133 132 30
1244 213 615 184 77 30
1245 375 509 346 13 30
1246 427 456 562 39 30
1247 668 115 265 294 30
1248 693 661 279 256 30
1249 587 555 441 418 30
1250 175 198 608 640 30
1251 502 534 337 360 30
1252 586 417 440 554 30
1253 336 501 359 533 30
1254 660 692 278 255 30
1255 639 174 197 607 30
1256 661 254 279 256 30
1257 175 198 173 608 30
1258 441 555 416 418 30
1259 335 502 337 360 30
1260 555 416 418 436 30
1261 473 472 447 544 30
1262 650 285 310 311 30
1263 229 230 597 204 30
1264 366 391 491 392 30
1265 39 456 40 58 30
1266 96 213 77 78 30
1267 375 27 14 13 30
1268 115 134 294 116 30
1269 336 501 334 359 30
1270 417 415 440 554 30
1271 197 174 172 607 30
1272 253 660 278 255 30
1273 698 113 322 323 30
1274 242 645 241 75 30
1275 404 539 403 11 30
1276 592 484 485 37 30
1277 501 356 336 334 30
1278 403 404 11 24 30
1279 485 484 55 37 30
1280 242 241 93 75 30
1281 113 131 322 323 30
1282 40 456 59 58 30
1283 375 27 28 14 30
1284 96 213 78 97 30
1285 134 135 294 116 30
1286 216 148 188 712 30
1287 350 711 378 72 30
1288 110 459 714 431 30
1289 297 155 269 713 30
1290 427 456 39 58 30
1291 265 115 134 294 30
1292 375 346 27 13 30
1293 213 184 96 77 30
1294 317 673 270 265 30
1295 346 514 398 351 30
1296 479 567 432 427 30
1297 620 236 184 189 30
1298 229 230 596 597 30
1299 649 650 310 311 30
1300 473 472 544 543 30
1301 491 391 490 392 30
1302 262 668 666 312 30
1303 614 615 231 181 30
1304 474 424 561 562 30
1305 393 343 508 509 30
1306 153 718 702 268 30
1307 716 349 699 70 30
1308 430 108 700 715 30
1309 146 717 701 187 30
1310 571 435 416 436 30
1311 192 624 193 173 30
1312 677 254 274 273 30
1313 355 354 518 335 30
1314 513 382 397 396 30
1315 220 235 619 234 30
1316 301 316 672 315 30
1317 477 478 463 566 30
1318 484 592 485 410 30
1319 248 698 322 323 30
1320 539 329 404 403 30
1321 645 242 241 167 30
1322 668 262 265 312 30
1323 393 343 509 346 30
1324 615 231 181 184 30
1325 474 427 424 562 30
1326 706 709 67 6 30
1327 708 10 143 705 30
1328 478 455 563 480 30
1329 293 316 318 669 30
1330 237 212 235 616 30
1331 510 399 397 374 30
1332 231 615 236 184 30
1333 479 427 474 562 30
1334 317 668 265 312 30
1335 509 393 346 398 30
1336 166 229 597 204 30
1337 391 366 491 328 30
1338 472 409 447 544 30
1339 650 285 247 310 30
1340 131 243 240 113 30
1341 24 11 324 321 30
1342 486 483 93 75 30
1343 405 402 55 37 30
1344 144 238 704 168 30
1345 705 151 319 249 30
1346 703 400 330 68 30
1347 706 106 481 411 30
1348 701 146 187 217 30
1349 349 699 70 379 30
1350 702 153 268 298 30
1351 108 460 430 700 30
1352 719 110 714 431 30
1353 720 711 350 72 30
1354 148 188 712 721 30
1355 269 155 722 713 30
1356 474 479 546 480 30
1357 393 493 399 398 30
1358 599 237 231 236 30
1359 318 652 317 312 30
1360 198 175 202 640 30
1361 693 279 283 256 30
1362 534 337 360 364 30
1363 587 441 445 418 30
1364 331 709 74 401 30
1365 169 150 239 708 30
1366 363 336 359 533 30
1367 417 586 440 444 30
1368 639 174 201 197 30
1369 278 692 282 255 30
1370 318 652 312 247 30
1371 409 474 546 480 30
1372 237 166 599 231 30
1373 493 393 399 328 30
1374 620 234 236 189 30
1375 673 315 317 270 30
1376 514 396 398 351 30
1377 567 477 479 432 30
1378 455 96 95 77 30
1379 39 57 58 374 30
1380 427 39 57 58 30
1381 96 184 95 77 30
1382 115 133 265 134 30
1383 346 26 27 13 30
1384 472 409 544 448 30
1385 391 491 367 328 30
1386 166 229 205 597 30
1387 286 650 247 310 30
1388 513 402 382 396 30
1389 220 619 240 234 30
1390 477 463 483 566 30
1391 321 301 672 315 30
1392 706 106 411 715 30
1393 705 718 151 249 30
1394 704 144 168 717 30
1395 330 703 68 716 30
1396 169 150 708 721 30
1397 709 720 331 74 30
1398 243 645 241 167 30
1399 486 592 484 410 30
1400 405 329 539 403 30
1401 698 324 248 322 30
1402 113 131 130 322 30
1403 241 93 75 92 30
1404 403 11 23 24 30
1405 55 484 54 37 30
1406 93 486 75 92 30
1407 131 243 113 130 30
1408 11 23 24 324 30
1409 405 55 54 37 30
1410 549 90 579 714 30
1411 712 602 632 128 30
1412 685 655 161 713 30
1413 526 52 711 496 30
1414 107 430 411 715 30
1415 717 168 187 145 30
1416 349 330 69 716 30
1417 718 268 152 249 30
1418 90 549 719 714 30
1419 161 655 722 713 30
1420 602 712 721 128 30
1421 52 720 711 496 30
1422 720 331 73 350 30
1423 719 111 431 412 30
1424 169 188 149 721 30
1425 250 269 156 722 30
1426 548 88 715 578 30
1427 718 654 159 684 30
1428 525 716 50 495 30
1429 631 601 717 126 30
1430 716 495 530 49 30
1431 654 718 158 689 30
1432 601 125 636 717 30
1433 548 87 583 715 30
1434 88 700 715 578 30
1435 717 631 126 701 30
1436 159 718 684 702 30
1437 716 525 50 699 30
1438 125 704 636 717 30
1439 87 706 583 715 30
1440 718 158 689 705 30
1441 703 716 530 49 30
1442 708 721 129 637 30
1443 584 91 719 710 30
1444 162 722 690 707 30
1445 709 720 53 531 30
1446 704 86 7 636 30
1447 706 583 48 5 30
1448 22 703 530 3 30
1449 9 124 689 705 30
1450 721 602 129 637 30
1451 722 655 162 690 30
1452 720 496 53 531 30
1453 91 549 584 719 30
1454 106 107 411 715 30
1455 144 168 717 145 30
1456 718 152 151 249 30
1457 330 68 69 716 30
1458 720 331 74 73 30
1459 111 719 112 412 30
1460 156 250 722 157 30
1461 150 169 149 721 30
1462 108 430 107 715 30
1463 69 349 716 70 30
1464 146 717 187 145 30
1465 153 718 268 152 30
1466 147 148 216 712 30
1467 155 297 154 713 30
1468 459 109 110 714 30
1469 711 378 72 71 30
1470 73 720 350 72 30
1471 188 148 149 721 30
1472 111 110 719 431 30
1473 269 155 156 722 30
1474 702 153 298 154 30
1475 701 146 217 147 30
1476 699 70 379 71 30
1477 108 109 460 700 30
1478 632 712 128 127 30
1479 160 685 161 713 30
1480 90 89 579 714 30
1481 51 526 52 711 30
1482 88 87 548 715 30
1483 716 50 495 49 30
1484 601 125 717 126 30
1485 654 718 159 158 30
1486 631 126 701 127 30
1487 88 700 578 89 30
1488 525 50 699 51 30
1489 160 159 684 702 30
1490 150 239 708 10 30
1491 710 112 482 8 30
1492 74 709 6 401 30
1493 320 707 157 4 30
1494 125 704 7 636 30
1495 706 87 583 5 30
1496 703 530 3 49 30
1497 158 9 689 705 30
1498 238 8 144 704 30
1499 106 706 481 6 30
1500 10 705 151 319 30
1501 703 4 400 68 30
1502 709 53 5 531 30
1503 584 91 710 7 30
1504 690 162 707 3 30
1505 129 708 637 9 30
1506 549 91 90 719 30
1507 655 161 722 162 30
1508 52 720 496 53 30
1509 721 602 128 129 30
1510 545 430 411 476 30
1511 545 411 430 548 30
1512 492 349 330 395 30
1513 492 330 349 495 30
1514 187 598 168 601 30
1515 187 168 598 233 30
1516 268 651 249 654 30
1517 268 249 651 314 30
1518 497 520 332 537 30
1519 332 520 497 373 30
1520 626 603 170 211 30
1521 170 603 626 643 30
1522 550 573 413 590 30
1523 550 413 573 454 30
1524 679 656 251 292 30
1525 251 656 679 696 30
1526 453 545 411 476 30
1527 411 545 453 569 30
1528 598 210 168 622 30
1529 168 210 598 233 30
1530 372 492 330 395 30
1531 330 492 372 516 30
1532 651 291 249 675 30
1533 249 291 651 314 30
1534 584 105 568 86 30
1535 690 36 674 22 30
1536 67 515 531 48 30
1537 637 143 621 124 30
1538 705 689 143 124 30
1539 143 689 675 124 30
1540 636 105 704 86 30
1541 622 105 636 86 30
1542 530 36 703 22 30
1543 516 36 530 22 30
1544 583 67 706 48 30
1545 569 67 583 48 30
1546 637 143 169 621 30
1547 412 584 105 568 30
1548 412 105 584 482 30
1549 690 250 36 320 30
1550 690 36 250 674 30
1551 331 531 67 515 30
1552 551 414 571 470 30
1553 551 571 414 591 30
1554 171 604 624 644 30
1555 171 624 604 227 30
1556 333 498 518 538 30
1557 333 518 498 389 30
1558 689 249 143 675 30
1559 105 636 168 622 30
1560 36 530 330 516 30
1561 67 583 411 569 30
1562 512 383 497 348 30
1563 497 383 512 487 30
1564 186 593 216 618 30
1565 186 216 593 221 30
1566 565 464 459 540 30
1567 565 459 464 429 30
1568 186 593 215 221 30
1569 186 215 593 603 30
1570 302 671 297 267 30
1571 297 671 302 646 30
1572 552 415 590 570 30
1573 552 590 415 466 30
1574 590 413 415 466 30
1575 172 605 643 223 30
1576 643 605 172 623 30
1577 172 643 170 223 30
1578 334 499 537 385 30
1579 537 499 334 517 30
1580 334 537 332 385 30
1581 658 253 696 676 30
1582 658 696 253 304 30
1583 696 251 253 304 30
1584 677 271 284 688 30
1585 284 271 677 273 30
1586 677 284 274 688 30
1587 274 284 677 273 30
1588 582 435 585 571 30
1589 582 585 435 433 30
1590 190 624 203 192 30
1591 190 203 624 635 30
1592 203 624 193 192 30
1593 203 193 624 635 30
1594 352 518 365 354 30
1595 365 518 352 529 30
1596 518 355 365 354 30
1597 365 355 518 529 30
1598 121 219 182 605 30
1599 121 182 219 140 30
1600 381 45 344 64 30
1601 381 344 45 499 30
1602 461 45 426 553 30
1603 461 426 45 64 30
1604 380 19 345 500 30
1605 380 345 19 33 30
1606 299 121 264 659 30
1607 299 264 121 140 30
1608 219 139 121 140 30
1609 686 33 18 19 30
1610 18 33 686 32 30
1611 33 528 18 19 30
1612 18 528 33 32 30
1613 102 580 82 101 30
1614 102 82 580 83 30
1615 634 102 82 101 30
1616 634 82 102 83 30
1617 63 45 381 64 30
1618 139 299 121 140 30
1619 63 461 45 64 30
1620 426 591 453 414 30
1621 453 591 426 572 30
1622 345 538 372 333 30
1623 345 372 538 519 30
1624 644 183 210 625 30
1625 644 210 183 171 30
1626 411 706 67 481 30
1627 411 67 706 583 30
1628 168 704 105 238 30
1629 168 105 704 636 30
1630 330 703 36 400 30
1631 330 36 703 530 30
1632 705 249 143 689 30
1633 143 249 705 319 30
1634 690 320 722 250 30
1635 690 722 320 707 30
1636 722 320 157 250 30
1637 722 157 320 707 30
1638 482 584 719 710 30
1639 482 719 584 412 30
1640 112 482 719 710 30
1641 112 719 482 412 30
1642 331 709 67 531 30
1643 331 67 709 401 30
1644 708 169 143 239 30
1645 708 143 169 637 30
1646 37 486 75 592 30
1647 37 75 486 1 30
1648 75 243 113 645 30
1649 75 113 243 1 30
1650 11 405 37 539 30
1651 11 37 405 1 30
1652 113 324 11 698 30
1653 11 324 113 1 30
1654 683 245 681 647 30
1655 681 245 683 276 30
1656 245 244 681 647 30
1657 681 244 245 276 30
1658 164 630 628 195 30
1659 628 630 164 594 30
1660 164 628 163 195 30
1661 163 628 164 594 30
1662 577 407 575 541 30
1663 575 407 577 438 30
1664 407 406 575 541 30
1665 575 406 407 438 30
1666 245 682 680 647 30
1667 245 680 682 277 30
1668 244 245 680 647 30
1669 244 680 245 277 30
1670 629 164 627 196 30
1671 629 627 164 594 30
1672 627 164 163 196 30
1673 627 163 164 594 30
1674 488 358 489 326 30
1675 488 489 358 523 30
1676 630 164 609 195 30
1677 630 609 164 595 30
1678 609 164 200 195 30
1679 609 200 164 595 30
1680 245 683 662 648 30
1681 245 662 683 276 30
1682 281 245 662 648 30
1683 281 662 245 276 30
1684 407 577 556 542 30
1685 407 556 577 438 30
1686 443 407 556 542 30
1687 443 556 407 438 30
1688 682 245 663 648 30
1689 663 245 682 277 30
1690 245 280 663 648 30
1691 663 280 245 277 30
1692 164 629 610 196 30
1693 610 629 164 595 30
1694 164 610 199 196 30
1695 199 610 164 595 30
1696 197 119 201 639 30
1697 201 119 197 138 30
1698 440 81 444 586 30
1699 444 81 440 100 30
1700 263 19 300 658 30
1701 263 300 19 33 30
1702 300 19 686 658 30
1703 300 686 19 33 30
1704 425 83 462 552 30
1705 462 83 425 102 30
1706 83 580 462 552 30
1707 462 580 83 102 30
1708 183 83 218 102 30
1709 218 83 183 606 30
1710 83 634 218 102 30
1711 218 634 83 606 30
1712 540 458 565 464 30
1713 540 565 458 550 30
1714 565 458 429 464 30
1715 565 429 458 550 30
1716 646 296 671 302 30
1717 646 671 296 656 30
1718 671 296 267 302 30
1719 671 267 296 656 30
1720 383 497 532 487 30
1721 383 532 497 377 30
1722 376 383 532 487 30
1723 376 532 383 377 30
1724 409 544 561 447 30
1725 561 544 409 546 30
1726 409 561 474 447 30
1727 474 561 409 546 30
1728 328 491 508 366 30
1729 328 508 491 493 30
1730 393 328 508 366 30
1731 393 508 328 493 30
1732 597 166 614 599 30
1733 597 614 166 204 30
1734 614 166 231 599 30
1735 614 231 166 204 30
1736 650 247 666 652 30
1737 666 247 650 285 30
1738 247 312 666 652 30
1739 666 312 247 285 30
1740 445 43 441 587 30
1741 441 43 445 62 30
1742 43 44 441 587 30
1743 441 44 43 62 30
1744 283 119 279 693 30
1745 279 119 283 138 30
1746 119 120 279 693 30
1747 279 120 119 138 30
1748 81 202 198 100 30
1749 81 198 202 640 30
1750 82 81 198 100 30
1751 82 198 81 640 30
1752 31 534 536 17 30
1753 31 536 534 364 30
1754 30 31 536 17 30
1755 30 536 31 364 30
1756 363 43 359 62 30
1757 359 43 363 533 30
1758 43 44 359 62 30
1759 359 44 43 533 30
1760 17 282 278 692 30
1761 17 278 282 31 30
1762 18 17 278 692 30
1763 240 645 234 619 30
1764 240 234 645 167 30
1765 402 539 396 513 30
1766 396 539 402 329 30
1767 564 459 578 460 30
1768 564 578 459 579 30
1769 578 459 700 460 30
1770 617 216 631 217 30
1771 631 216 617 632 30
1772 216 701 631 217 30
1773 378 511 525 526 30
1774 378 525 511 379 30
1775 699 525 378 379 30
1776 297 670 684 685 30
1777 297 684 670 298 30
1778 702 684 297 298 30
1779 325 529 356 522 30
1780 356 529 325 365 30
1781 244 688 275 681 30
1782 244 275 688 284 30
1783 635 163 194 203 30
1784 635 194 163 628 30
1785 406 582 437 575 30
1786 406 437 582 446 30
1787 688 244 274 680 30
1788 274 244 688 284 30
1789 325 529 355 365 30
1790 355 529 325 521 30
1791 163 635 193 203 30
1792 193 635 163 627 30
1793 582 406 436 574 30
1794 436 406 582 446 30
1795 432 38 39 567 30
1796 39 38 432 57 30
1797 432 39 427 567 30
1798 427 39 432 57 30
1799 351 12 13 514 30
1800 13 12 351 26 30
1801 351 13 346 514 30
1802 346 13 351 26 30
1803 189 76 77 620 30
1804 77 76 189 95 30
1805 189 77 184 620 30
1806 184 77 189 95 30
1807 270 114 115 673 30
1808 270 115 114 133 30
1809 265 270 115 673 30
1810 265 115 270 133 30
1811 539 396 351 329 30
1812 539 351 396 514 30
1813 410 567 566 592 30
1814 410 566 567 477 30
1815 483 410 566 592 30
1816 483 566 410 477 30
1817 673 248 672 315 30
1818 673 672 248 698 30
1819 672 248 321 315 30
1820 672 321 248 698 30
1821 234 645 189 620 30
1822 234 189 645 167 30
1823 367 506 342 507 30
1824 342 506 367 340 30
1825 506 370 342 507 30
1826 342 370 506 340 30
1827 448 559 423 560 30
1828 448 423 559 421 30
1829 423 559 451 560 30
1830 423 451 559 421 30
1831 612 205 180 178 30
1832 612 180 205 613 30
1833 208 612 180 178 30
1834 208 180 612 613 30
1835 664 286 261 259 30
1836 261 286 664 667 30
1837 664 261 289 259 30
1838 289 261 664 667 30
1839 279 120 299 687 30
1840 279 299 120 139 30
1841 299 120 121 687 30
1842 299 121 120 139 30
1843 441 44 461 581 30
1844 461 44 441 63 30
1845 44 45 461 581 30
1846 461 45 44 63 30
1847 32 528 534 18 30
1848 32 534 528 360 30
1849 31 534 32 360 30
1850 120 197 219 633 30
1851 120 219 197 139 30
1852 121 120 219 633 30
1853 121 219 120 139 30
1854 359 44 381 63 30
1855 381 44 359 527 30
1856 44 45 381 63 30
1857 381 45 44 527 30
1858 576 436 406 574 30
1859 406 436 576 439 30
1860 576 406 541 574 30
1861 196 627 175 193 30
1862 175 627 196 629 30
1863 175 608 627 629 30
1864 680 277 256 682 30
1865 256 277 680 274 30
1866 680 256 661 682 30
1867 358 521 337 355 30
1868 337 521 358 523 30
1869 337 502 521 523 30
1870 524 356 325 357 30
1871 524 325 356 522 30
1872 488 325 524 522 30
1873 628 195 174 194 30
1874 628 174 195 630 30
1875 607 174 628 630 30
1876 276 681 255 683 30
1877 276 255 681 275 30
1878 255 681 660 683 30
1879 438 575 417 577 30
1880 438 417 575 437 30
1881 417 575 554 577 30
1882 114 240 220 619 30
1883 114 220 240 132 30
1884 321 12 301 25 30
1885 301 12 321 672 30
1886 382 38 402 513 30
1887 402 38 382 56 30
1888 38 37 402 513 30
1889 402 37 38 56 30
1890 76 463 483 94 30
1891 76 483 463 566 30
1892 75 76 483 94 30
1893 75 483 76 566 30
1894 463 76 77 95 30
1895 77 76 463 566 30
1896 114 220 115 619 30
1897 114 115 220 133 30
1898 38 382 39 513 30
1899 38 39 382 57 30
1900 301 12 13 26 30
1901 13 12 301 672 30
1902 506 362 338 503 30
1903 338 362 506 340 30
1904 259 662 310 281 30
1905 259 310 662 664 30
1906 310 662 649 281 30
1907 310 649 662 664 30
1908 556 421 472 559 30
1909 556 472 421 443 30
1910 543 556 472 559 30
1911 543 472 556 443 30
1912 611 199 177 179 30
1913 611 177 199 610 30
1914 558 442 420 422 30
1915 558 420 442 557 30
1916 361 505 339 504 30
1917 361 339 505 341 30
1918 663 260 311 280 30
1919 311 260 663 665 30
1920 663 311 649 280 30
1921 649 311 663 665 30
1922 612 176 200 178 30
1923 612 200 176 609 30
1924 229 612 200 178 30
1925 259 662 694 664 30
1926 259 694 662 257 30
1927 287 259 694 664 30
1928 287 694 259 257 30
1929 421 556 588 559 30
1930 588 556 421 419 30
1931 421 588 449 559 30
1932 449 588 421 419 30
1933 663 260 695 665 30
1934 695 260 663 258 30
1935 260 288 695 665 30
1936 695 288 260 258 30
1937 455 77 471 96 30
1938 471 77 455 563 30
1939 77 78 471 96 30
1940 471 78 77 563 30
1941 39 374 390 510 30
1942 390 374 39 58 30
1943 39 390 40 510 30
1944 40 390 39 58 30
1945 134 616 133 212 30
1946 134 133 616 115 30
1947 133 616 220 212 30
1948 133 220 616 115 30
1949 27 669 26 293 30
1950 26 669 27 13 30
1951 669 301 26 293 30
1952 26 301 669 13 30
1953 567 410 485 592 30
1954 485 410 567 432 30
1955 567 485 38 592 30
1956 38 485 567 432 30
1957 673 248 323 698 30
1958 673 323 248 270 30
1959 114 673 323 698 30
1960 114 323 673 270 30
1961 704 105 584 86 30
1962 584 704 7 710 30
1963 7 704 584 86 30
1964 703 36 690 22 30
1965 690 703 3 707 30
1966 3 703 690 22 30
1967 531 67 706 709 30
1968 531 706 67 48 30
1969 5 531 706 709 30
1970 5 706 531 48 30
1971 637 143 705 708 30
1972 705 143 637 124 30
1973 637 705 9 708 30
1974 9 705 637 124 30
1975 266 651 678 291 30
1976 678 651 266 657 30
1977 415 590 434 413 30
1978 434 590 415 570 30
1979 590 550 434 413 30
1980 434 550 590 570 30
1981 172 643 191 170 30
1982 172 191 643 623 30
1983 191 643 603 170 30
1984 191 603 643 623 30
1985 334 537 353 332 30
1986 334 353 537 517 30
1987 353 537 497 332 30
1988 353 497 537 517 30
1989 253 696 272 251 30
1990 272 696 253 676 30
1991 696 656 272 251 30
1992 272 656 696 676 30
1993 578 459 714 700 30
1994 714 459 578 579 30
1995 578 714 89 700 30
1996 89 714 578 579 30
1997 631 216 712 701 30
1998 712 216 631 632 30
1999 631 712 127 701 30
2000 127 712 631 632 30
2001 525 378 711 699 30
2002 525 711 378 526 30
2003 51 525 711 699 30
2004 51 711 525 526 30
2005 684 297 713 702 30
2006 684 713 297 685 30
2007 160 684 713 702 30
2008 160 713 684 685 30
2009 534 32 17 31 30
2010 534 17 32 18 30
2011 17 32 278 31 30
2012 17 278 32 18 30
2013 576 406 407 541 30
2014 576 407 406 439 30
2015 542 576 407 541 30
2016 627 175 173 608 30
2017 173 175 627 193 30
2018 627 173 624 608 30
2019 624 173 627 193 30
2020 680 256 254 661 30
2021 680 254 256 274 30
2022 677 680 254 661 30
2023 677 254 680 274 30
2024 521 337 335 502 30
2025 335 337 521 355 30
2026 521 335 518 502 30
2027 518 335 521 355 30
2028 325 524 326 488 30
2029 325 326 524 357 30
2030 326 524 489 488 30
2031 174 628 172 607 30
2032 174 172 628 194 30
2033 172 628 623 607 30
2034 172 623 628 194 30
2035 255 681 253 660 30
2036 253 681 255 275 30
2037 681 676 253 660 30
2038 253 676 681 275 30
2039 417 575 415 554 30
2040 415 575 417 437 30
2041 575 570 415 554 30
2042 415 570 575 437 30
2043 596 200 612 609 30
2044 612 200 596 229 30
2045 482 584 704 105 30
2046 482 704 584 710 30
2047 8 482 704 105 30
2048 8 704 482 710 30
2049 320 690 703 36 30
2050 320 703 690 707 30
2051 4 320 703 36 30
2052 4 703 320 707 30
2053 678 252 266 291 30
2054 264 678 252 697 30
2055 264 252 678 291 30
2056 576 407 557 542 30
2057 576 557 407 439 30
2058 557 407 442 542 30
2059 557 442 407 439 30
2060 326 524 503 489 30
2061 503 524 326 357 30
2062 326 503 362 489 30
2063 362 503 326 357 30
2064 657 308 678 697 30
2065 657 678 308 266 30
2066 678 308 252 697 30
2067 678 252 308 266 30
