1007 3 1 0
1 0 0 -17 0
2 0 0 -20 0
3 6.69038456852373 0 5 7
4 9.68245836551854 0 5 7
5 4.09667902345372e-16 6.69038456852373 5 7
6 5.9287958226049e-16 9.68245836551854 5 7
7 -6.69038456852373 0 5 7
8 -9.68245836551854 0 5 7
9 0 -6.69038456852373 5 7
10 0 -9.68245836551854 5 7
11 1.78651109911665 0 -16.4370296666162 0
12 3.17401721252169 0 -15.1519532372617 0
13 4.21744627445233 0 -13.5681194916833 0
14 5.01990642455052 0 -11.8479791717446 0
15 5.64429543269395 0 -10.0549688202034 0
16 6.12759911873596 0 -8.21867074581688 0
17 6.49247998747539 0 -6.3551141930602 0
18 6.75322271066545 0 -4.47410028083183 0
19 6.91877115435364 0 -2.58229865664993 0
20 6.99431909960287 0 -0.68475522539999 0
21 6.98212089236046 0 1.21425619333839 0
22 6.88181728586782 0 3.11064910181337 0
23 1.90300533477562 0 -19.6345176356146 0
24 3.587986727838 0 -18.6682994662994 0
25 4.99585345417527 0 -17.3252934479512 0
26 6.15592781767838 0 -15.761288361493 0
27 7.11035213277812 0 -14.0631280372323 0
28 7.89341992630358 0 -12.2790751878199 0
29 8.53020900129555 0 -10.4375350335635 0
30 9.03864056255911 0 -8.55639568530139 0
31 9.43143929714474 0 -6.64769216624053 0
32 9.71752278993038 0 -4.72006390939096 0
33 9.90291420809682 0 -2.78013682186624 0
34 9.99131501716426 0 -0.833364812763019 0
35 9.98443629298131 0 1.1154047003625 0
36 9.88214611753472 0 3.06149513257397 0
37 1.09392254958721e-16 1.78651109911665 -16.4370296666162 0
38 1.94352500987665e-16 3.17401721252169 -15.1519532372617 0
39 2.58244104029199e-16 4.21744627445233 -13.5681194916833 0
40 3.07380616742251e-16 5.01990642455052 -11.8479791717446 0
41 3.45613416754533e-16 5.64429543269395 -10.0549688202034 0
42 3.75207232360907e-16 6.12759911873596 -8.21867074581688 0
43 3.97549741759499e-16 6.49247998747539 -6.3551141930602 0
44 4.13515628827283e-16 6.75322271066545 -4.47410028083183 0
45 4.23652547410611e-16 6.91877115435364 -2.58229865664993 0
46 4.28278524877193e-16 6.99431909960287 -0.68475522539999 0
47 4.27531600104455e-16 6.98212089236046 1.21425619333839 0
48 4.21389775572748e-16 6.88181728586782 3.11064910181337 0
49 6.46241524254399 1.73159894538994 5 7
50 5.79404299743334 3.34519228425424 5 7
51 4.730816297158 4.73081629713993 5 7
52 3.34519228426967 5.79404299742444 5 7
53 1.73159894539717 6.46241524254205 5 7
54 1.16525469599665e-16 1.90300533477562 -19.6345176356146 0
55 2.197008230815e-16 3.587986727838 -18.6682994662994 0
56 3.05907797083249e-16 4.99585345417527 -17.3252934479512 0
57 3.76941864885099e-16 6.15592781767838 -15.761288361493 0
58 4.35383499010864e-16 7.11035213277812 -14.0631280372323 0
59 4.83332572353681e-16 7.89341992630358 -12.2790751878199 0
60 5.22324657474727e-16 8.53020900129555 -10.4375350335635 0
61 5.53457111679073e-16 9.03864056255911 -8.55639568530139 0
62 5.77509097330043e-16 9.43143929714474 -6.64769216624053 0
63 5.95026659016485e-16 9.71752278993038 -4.72006390939096 0
64 6.06378609358831e-16 9.90291420809682 -2.78013682186624 0
65 6.11791597752155e-16 9.99131501716426 -0.833364812763019 0
66 6.11370397374511e-16 9.98443629298131 1.1154047003625 0
67 6.05106930577267e-16 9.88214611753472 3.06149513257397 0
68 9.4964126430187 1.88895392043175 5 7
69 8.94542510829899 3.70531640103972 5 7
70 8.05066990332188 5.3792856503208 5 7
71 6.84653196882797 6.84653196880119 5 7
72 5.37928565034538 8.05066990330546 5 7
73 3.70531640105653 8.94542510829203 5 7
74 1.88895392044004 9.49641264301706 5 7
75 -1.78651109911665 0 -16.4370296666162 0
76 -3.17401721252169 0 -15.1519532372617 0
77 -4.21744627445233 0 -13.5681194916833 0
78 -5.01990642455052 0 -11.8479791717446 0
79 -5.64429543269395 0 -10.0549688202034 0
80 -6.12759911873596 0 -8.21867074581688 0
81 -6.49247998747539 0 -6.3551141930602 0
82 -6.75322271066545 0 -4.47410028083183 0
83 -6.91877115435364 0 -2.58229865664993 0
84 -6.99431909960287 0 -0.68475522539999 0
85 -6.98212089236046 0 1.21425619333839 0
86 -6.88181728586782 0 3.11064910181337 0
87 -1.73159894538994 6.46241524254399 5 7
88 -3.34519228425424 5.79404299743334 5 7
89 -4.73081629713993 4.730816297158 5 7
90 -5.79404299742444 3.34519228426967 5 7
91 -6.46241524254205 1.73159894539717 5 7
92 -1.90300533477562 0 -19.6345176356146 0
93 -3.587986727838 0 -18.6682994662994 0
94 -4.99585345417527 0 -17.3252934479512 0
95 -6.15592781767838 0 -15.761288361493 0
96 -7.11035213277812 0 -14.0631280372323 0
97 -7.89341992630358 0 -12.2790751878199 0
98 -8.53020900129555 0 -10.4375350335635 0
99 -9.03864056255911 0 -8.55639568530139 0
100 -9.43143929714474 0 -6.64769216624053 0
101 -9.71752278993038 0 -4.72006390939096 0
102 -9.90291420809682 0 -2.78013682186624 0
103 -9.99131501716426 0 -0.833364812763019 0
104 -9.98443629298131 0 1.1154047003625 0
105 -9.88214611753472 0 3.06149513257397 0
106 -1.88895392043175 9.4964126430187 5 7
107 -3.70531640103972 8.94542510829899 5 7
108 -5.37928565032079 8.05066990332188 5 7
109 -6.84653196880119 6.84653196882797 5 7
110 -8.05066990330546 5.37928565034538 5 7
111 -8.94542510829203 3.70531640105653 5 7
112 -9.49641264301706 1.88895392044004 5 7
113 0 -1.78651109911665 -16.4370296666162 0
114 0 -3.17401721252169 -15.1519532372617 0
115 0 -4.21744627445233 -13.5681194916833 0
116 0 -5.01990642455052 -11.8479791717446 0
117 0 -5.64429543269395 -10.0549688202034 0
118 0 -6.12759911873596 -8.21867074581688 0
119 0 -6.49247998747539 -6.3551141930602 0
120 0 -6.75322271066545 -4.47410028083183 0
121 0 -6.91877115435364 -2.58229865664993 0
122 0 -6.99431909960287 -0.68475522539999 0
123 0 -6.98212089236046 1.21425619333839 0
124 0 -6.88181728586782 3.11064910181337 0
125 -6.46241524254399 -1.73159894538994 5 7
126 -5.79404299743334 -3.34519228425424 5 7
127 -4.730816297158 -4.73081629713993 5 7
128 -3.34519228426967 -5.79404299742444 5 7
129 -1.73159894539717 -6.46241524254205 5 7
130 0 -1.90300533477562 -19.6345176356146 0
131 0 -3.587986727838 -18.6682994662994 0
132 0 -4.99585345417527 -17.3252934479512 0
133 0 -6.15592781767838 -15.761288361493 0
134 0 -7.11035213277812 -14.0631280372323 0
135 0 -7.89341992630358 -12.2790751878199 0
136 0 -8.53020900129555 -10.4375350335635 0
137 0 -9.03864056255911 -8.55639568530139 0
138 0 -9.43143929714474 -6.64769216624053 0
139 0 -9.71752278993038 -4.72006390939096 0
140 0 -9.90291420809682 -2.78013682186624 0
141 0 -9.99131501716426 -0.833364812763019 0
142 0 -9.98443629298131 1.1154047003625 0
143 0 -9.88214611753472 3.06149513257397 0
144 -9.4964126430187 -1.88895392043175 5 7
145 -8.94542510829899 -3.70531640103972 5 7
146 -8.05066990332188 -5.3792856503208 5 7
147 -6.84653196882797 -6.84653196880119 5 7
148 -5.37928565034538 -8.05066990330546 5 7
149 -3.70531640105653 -8.94542510829203 5 7
150 -1.88895392044004 -9.49641264301706 5 7
151 1.88895392043175 -9.4964126430187 5 7
152 3.70531640103972 -8.94542510829899 5 7
153 5.3792856503208 -8.05066990332188 5 7
154 6.84653196880119 -6.84653196882797 5 7
155 8.05066990330546 -5.37928565034538 5 7
156 8.94542510829203 -3.70531640105653 5 7
157 9.49641264301706 -1.88895392044004 5 7
158 1.73159894538994 -6.46241524254399 5 7
159 3.34519228425424 -5.79404299743334 5 7
160 4.73081629713993 -4.730816297158 5 7
161 5.79404299742444 -3.34519228426967 5 7
162 6.46241524254205 -1.73159894539717 5 7
163 -6.86687699134819 -6.86687699134679 -4.77158287003585 0
164 -6.64220321362583 -6.64220321362529 -6.85923404989349 0
165 -6.33369318073352 -6.33369318073326 -8.89239256548264 0
166 -5.59935456518314 -5.60122850221108 -12.2104001112791 0
167 -3.54992875381755 -2.78950758768332 -17.8456328843868 0
168 -9.58068186740444 -2.4380401567598 3.01097668514018 0
169 -2.44243970572042 -9.57840032920486 3.02571341498739 0
170 -4.1517376833696 -9.08231473972306 -1.04810911091935 0
171 -9.14043151068174 -4.02002902650039 -1.08051547815046 0
172 -3.77322053449995 -9.10389371512572 -3.39524727919629 0
173 -9.11128120641036 -3.75431320754497 -3.3998159464105 0
174 -3.6402254228717 -8.83867107024063 -5.87423274403386 0
175 -8.83867107024109 -3.6402254228706 -5.87423274403386 0
176 -3.50150630601882 -8.47629508693838 -7.9729229741807 0
177 -8.47629508693854 -3.50150630601844 -7.9729229741807 0
178 -3.61628389019799 -7.79057006818385 -10.2429505198868 0
179 -7.79057006818393 -3.61628389019782 -10.2429505198868 0
180 -3.12667433875716 -7.20179793730375 -12.3867694011966 0
181 -7.12513875639502 -3.14750137262169 -12.5420305870241 0
182 -1.9484620178674 -9.79179441038423 -1.13887310916768 0
183 -9.79565669234702 -1.92826631577875 -1.14350160666271 0
184 -6.49457253486535 -2.18206629361455 -14.5683374864318 0
185 -8.67315865533585 -4.94606350369534 1.11852538064339 0
186 -4.92577928704627 -8.67910870050181 1.28026650378694 0
187 -8.81033042406117 -4.45610936055071 3.17563674602395 0
188 -4.45997094063769 -8.80616336499419 3.20009124726253 0
189 -5.12635252668221 -2.2797975205875 -16.5557280766872 0
190 -7.04929042223974 -7.04929042223437 -1.56845030002716 0
191 -5.69090350748642 -8.14626474689102 -2.2378453405358 0
192 -8.20393053347249 -5.6304903105493 -1.99309073026619 0
193 -8.11046916842216 -5.47081176282416 -4.1427085457794 0
194 -5.47081176282665 -8.11046916842048 -4.1427085457794 0
195 -5.26932385127982 -7.88333522630829 -6.35208685708265 0
196 -7.88333522630897 -5.26932385127879 -6.35208685708265 0
197 -2.00904227693648 -9.44369043516332 -5.20786332166528 0
198 -9.44369043516358 -2.00904227693527 -5.20786332166528 0
199 -7.4154015808389 -5.20767531998381 -8.45977237436645 0
200 -5.20767531998423 -7.41540158083861 -8.45977237436645 0
201 -1.82697438486312 -9.1037636065526 -7.4252684242558 0
202 -9.10376360655269 -1.82697438486266 -7.4252684242558 0
203 -6.98057229094298 -6.98057229093976 -3.18949587357192 0
204 -6.58622421173613 -4.90206150573019 -11.4177832571439 0
205 -4.69037681319046 -6.55686083226883 -11.8335018276999 0
206 -1.72021431057356 -8.64454530787722 -9.44726397339586 0
207 -8.64454530787725 -1.72021431057341 -9.44726397339586 0
208 -1.68581780575802 -8.09064541196002 -11.2604573874633 0
209 -8.03522789081311 -1.59796515536356 -11.4684994842295 0
210 -9.49395432906549 -3.11635385805286 0.782738344576856 0
211 -3.13894548156917 -9.48581038009797 0.815898759803354 0
212 -2.24666734988064 -6.57848526336888 -14.3772066074907 0
213 -7.25562195992659 -1.19876730551172 -13.5526981700128 0
214 -7.63702351600399 -6.45566019230853 -0.0359609479881739 0
215 -6.09145049623938 -7.92922261124439 -0.294344241973591 0
216 -6.32656932965561 -7.60266191078998 2.94893362915085 0
217 -7.81926086542448 -6.03098243263506 3.15367114055257 0
218 -9.70103421475287 -1.81215723553446 -3.22863520261693 0
219 -1.81883949731717 -9.69991046168029 -3.2271101117775 0
220 -2.05479890536836 -5.44333075946122 -16.2662782100394 0
221 -6.58513273296094 -7.5053173918717 1.10677502059745 0
222 -7.48628434916576 -6.57764382620736 1.66150334214761 0
223 -2.94537482929538 -9.49254413634976 -2.20578596822543 0
224 -9.50601640110826 -2.89955048196633 -2.21653710493603 0
225 -1.29339036954698 -9.9038509769557 0.981584796574829 0
226 -9.90496299439643 -1.28604477303992 0.975288513977247 0
227 -8.47539928567427 -5.3014597697293 -0.498522851366634 0
228 -1.3300591912786 -7.51562277506703 -12.9222841402887 0
229 -5.57205750015234 -6.43336394934273 -10.5002863790076 0
230 -6.82814412114397 -5.36331391499571 -9.92195781287148 0
231 -6.08462884676583 -4.31785623398763 -13.3166676521898 0
232 -3.7998942516111 -9.19354975725832 2.03906501847133 0
233 -9.19694300272898 -3.7989251131603 1.98434612822903 0
234 -3.74997172118958 -4.17316991703468 -16.5556473668456 0
235 -3.79610458961512 -5.24504268644336 -15.241931263733 0
236 -5.19558381495184 -4.11638218527024 -14.9748197353558 0
237 -4.51991257849257 -5.81393686084664 -13.5304883076515 0
238 -9.73488559288291 -1.08881485931563 4.02317521150362 0
239 -1.08996139097175 -9.7343799290895 4.02682582803396 0
240 -2.01477682558263 -4.20913011530068 -17.6888550240612 0
241 -3.2716716388976 -1.43899953062973 -18.6789127133332 0
242 -4.13071747110423 -1.6373454162775 -17.9171731209708 0
243 -2.12521812110637 -2.62946837799499 -18.8222574615104 0
244 6.86687699134679 -6.86687699134819 -4.77158287003585 0
245 6.64220321362529 -6.64220321362583 -6.85923404989349 0
246 6.33369318073326 -6.33369318073352 -8.89239256548264 0
247 5.60122850221108 -5.59935456518314 -12.2104001112791 0
248 2.78950758768332 -3.54992875381755 -17.8456328843868 0
249 2.4380401567598 -9.58068186740444 3.01097668514018 0
250 9.57840032920486 -2.44243970572042 3.02571341498739 0
251 9.08231473972306 -4.1517376833696 -1.04810911091935 0
252 4.02002902650039 -9.14043151068174 -1.08051547815046 0
253 9.10389371512572 -3.77322053449995 -3.39524727919629 0
254 3.75431320754497 -9.11128120641036 -3.3998159464105 0
255 8.83867107024063 -3.6402254228717 -5.87423274403386 0
256 3.6402254228706 -8.83867107024109 -5.87423274403386 0
257 8.47629508693838 -3.50150630601882 -7.9729229741807 0
258 3.50150630601844 -8.47629508693854 -7.9729229741807 0
259 7.79057006818385 -3.61628389019799 -10.2429505198868 0
260 3.61628389019782 -7.79057006818393 -10.2429505198868 0
261 7.20179793730375 -3.12667433875716 -12.3867694011966 0
262 3.14750137262169 -7.12513875639502 -12.5420305870241 0
263 9.79179441038423 -1.9484620178674 -1.13887310916768 0
264 1.92826631577875 -9.79565669234702 -1.14350160666271 0
265 2.18206629361455 -6.49457253486535 -14.5683374864318 0
266 4.94606350369534 -8.67315865533585 1.11852538064339 0
267 8.67910870050181 -4.92577928704627 1.28026650378694 0
268 4.45610936055071 -8.81033042406117 3.17563674602395 0
269 8.80616336499419 -4.45997094063769 3.20009124726253 0
270 2.2797975205875 -5.12635252668221 -16.5557280766872 0
271 7.04929042223437 -7.04929042223974 -1.56845030002716 0
272 8.14626474689102 -5.69090350748642 -2.2378453405358 0
273 5.6304903105493 -8.20393053347249 -1.99309073026619 0
274 5.47081176282416 -8.11046916842216 -4.1427085457794 0
275 8.11046916842048 -5.47081176282665 -4.1427085457794 0
276 7.88333522630829 -5.26932385127982 -6.35208685708265 0
277 5.26932385127879 -7.88333522630897 -6.35208685708265 0
278 9.44369043516332 -2.00904227693648 -5.20786332166528 0
279 2.00904227693527 -9.44369043516358 -5.20786332166528 0
280 5.20767531998381 -7.4154015808389 -8.45977237436645 0
281 7.41540158083861 -5.20767531998423 -8.45977237436645 0
282 9.1037636065526 -1.82697438486312 -7.4252684242558 0
283 1.82697438486266 -9.10376360655269 -7.4252684242558 0
284 6.98057229093976 -6.98057229094298 -3.18949587357192 0
285 4.90206150573019 -6.58622421173613 -11.4177832571439 0
286 6.55686083226883 -4.69037681319046 -11.8335018276999 0
287 8.64454530787722 -1.72021431057356 -9.44726397339586 0
288 1.72021431057341 -8.64454530787725 -9.44726397339586 0
289 8.09064541196002 -1.68581780575802 -11.2604573874633 0
290 1.59796515536356 -8.03522789081311 -11.4684994842295 0
291 3.11635385805286 -9.49395432906549 0.782738344576856 0
292 9.48581038009797 -3.13894548156917 0.815898759803354 0
293 6.57848526336888 -2.24666734988064 -14.3772066074907 0
294 1.19876730551172 -7.25562195992659 -13.5526981700128 0
295 6.45566019230853 -7.63702351600399 -0.0359609479881739 0
296 7.92922261124439 -6.09145049623938 -0.294344241973591 0
297 7.60266191078998 -6.32656932965561 2.94893362915085 0
298 6.03098243263506 -7.81926086542448 3.15367114055257 0
299 1.81215723553446 -9.70103421475287 -3.22863520261693 0
300 9.69991046168029 -1.81883949731717 -3.2271101117775 0
301 5.44333075946122 -2.05479890536836 -16.2662782100394 0
302 7.5053173918717 -6.58513273296094 1.10677502059745 0
303 6.57764382620736 -7.48628434916576 1.66150334214761 0
304 9.49254413634976 -2.94537482929538 -2.20578596822543 0
305 2.89955048196633 -9.50601640110826 -2.21653710493603 0
306 9.9038509769557 -1.29339036954698 0.981584796574829 0
307 1.28604477303992 -9.90496299439643 0.975288513977247 0
308 5.3014597697293 -8.47539928567427 -0.498522851366634 0
309 7.51562277506703 -1.3300591912786 -12.9222841402887 0
310 6.43336394934273 -5.57205750015234 -10.5002863790076 0
311 5.36331391499571 -6.82814412114397 -9.92195781287148 0
312 4.31785623398763 -6.08462884676583 -13.3166676521898 0
313 9.19354975725832 -3.7998942516111 2.03906501847133 0
314 3.7989251131603 -9.19694300272898 1.98434612822903 0
315 4.17316991703468 -3.74997172118958 -16.5556473668456 0
316 5.24504268644336 -3.79610458961512 -15.241931263733 0
317 4.11638218527024 -5.19558381495184 -14.9748197353558 0
318 5.81393686084664 -4.51991257849257 -13.5304883076515 0
319 1.08881485931563 -9.73488559288291 4.02317521150362 0
320 9.7343799290895 -1.08996139097175 4.02682582803396 0
321 4.20913011530068 -2.01477682558263 -17.6888550240612 0
322 1.43899953062973 -3.2716716388976 -18.6789127133332 0
323 1.6373454162775 -4.13071747110423 -17.9171731209708 0
324 2.62946837799499 -2.12521812110637 -18.8222574615104 0
325 6.86687699134819 6.86687699134679 -4.77158287003585 0
326 6.64220321362583 6.64220321362529 -6.85923404989349 0
327 6.33369318073352 6.33369318073326 -8.89239256548264 0
328 5.59935456518314 5.60122850221108 -12.2104001112791 0
329 3.54992875381755 2.78950758768332 -17.8456328843868 0
330 9.58068186740444 2.4380401567598 3.01097668514018 0
331 2.44243970572042 9.57840032920486 3.02571341498739 0
332 4.1517376833696 9.08231473972306 -1.04810911091935 0
333 9.14043151068174 4.02002902650039 -1.08051547815046 0
334 3.77322053449995 9.10389371512572 -3.39524727919629 0
335 9.11128120641036 3.75431320754497 -3.3998159464105 0
336 3.6402254228717 8.83867107024063 -5.87423274403386 0
337 8.83867107024109 3.6402254228706 -5.87423274403386 0
338 3.50150630601882 8.47629508693838 -7.9729229741807 0
339 8.47629508693854 3.50150630601844 -7.9729229741807 0
340 3.61628389019799 7.79057006818385 -10.2429505198868 0
341 7.79057006818393 3.61628389019782 -10.2429505198868 0
342 3.12667433875716 7.20179793730375 -12.3867694011966 0
343 7.12513875639502 3.14750137262169 -12.5420305870241 0
344 1.9484620178674 9.79179441038423 -1.13887310916768 0
345 9.79565669234702 1.92826631577875 -1.14350160666271 0
346 6.49457253486535 2.18206629361455 -14.5683374864318 0
347 8.67315865533585 4.94606350369534 1.11852538064339 0
348 4.92577928704627 8.67910870050181 1.28026650378694 0
349 8.81033042406117 4.45610936055071 3.17563674602395 0
350 4.45997094063769 8.80616336499419 3.20009124726253 0
351 5.12635252668221 2.2797975205875 -16.5557280766872 0
352 7.04929042223974 7.04929042223437 -1.56845030002716 0
353 5.69090350748642 8.14626474689102 -2.2378453405358 0
354 8.20393053347249 5.6304903105493 -1.99309073026619 0
355 8.11046916842216 5.47081176282416 -4.1427085457794 0
356 5.47081176282665 8.11046916842048 -4.1427085457794 0
357 5.26932385127982 7.88333522630829 -6.35208685708265 0
358 7.88333522630897 5.26932385127879 -6.35208685708265 0
359 2.00904227693648 9.44369043516332 -5.20786332166528 0
360 9.44369043516358 2.00904227693527 -5.20786332166528 0
361 7.4154015808389 5.20767531998381 -8.45977237436645 0
362 5.20767531998423 7.41540158083861 -8.45977237436645 0
363 1.82697438486312 9.1037636065526 -7.4252684242558 0
364 9.10376360655269 1.82697438486266 -7.4252684242558 0
365 6.98057229094298 6.98057229093976 -3.18949587357192 0
366 6.58622421173613 4.90206150573019 -11.4177832571439 0
367 4.69037681319046 6.55686083226883 -11.8335018276999 0
368 1.72021431057356 8.64454530787722 -9.44726397339586 0
369 8.64454530787725 1.72021431057341 -9.44726397339586 0
370 1.68581780575802 8.09064541196002 -11.2604573874633 0
371 8.03522789081311 1.59796515536356 -11.4684994842295 0
372 9.49395432906549 3.11635385805286 0.782738344576856 0
373 3.13894548156917 9.48581038009797 0.815898759803354 0
374 2.24666734988064 6.57848526336888 -14.3772066074907 0
375 7.25562195992659 1.19876730551172 -13.5526981700128 0
376 7.63702351600399 6.45566019230853 -0.0359609479881739 0
377 6.09145049623938 7.92922261124439 -0.294344241973591 0
378 6.32656932965561 7.60266191078998 2.94893362915085 0
379 7.81926086542448 6.03098243263506 3.15367114055257 0
380 9.70103421475287 1.81215723553446 -3.22863520261693 0
381 1.81883949731717 9.69991046168029 -3.2271101117775 0
382 2.05479890536836 5.44333075946122 -16.2662782100394 0
383 6.58513273296094 7.5053173918717 1.10677502059745 0
384 7.48628434916576 6.57764382620736 1.66150334214761 0
385 2.94537482929538 9.49254413634976 -2.20578596822543 0
386 9.50601640110826 2.89955048196633 -2.21653710493603 0
387 1.29339036954698 9.9038509769557 0.981584796574829 0
388 9.90496299439643 1.28604477303992 0.975288513977247 0
389 8.47539928567427 5.3014597697293 -0.498522851366634 0
390 1.3300591912786 7.51562277506703 -12.9222841402887 0
391 5.57205750015234 6.43336394934273 -10.5002863790076 0
392 6.82814412114397 5.36331391499571 -9.92195781287148 0
393 6.08462884676583 4.31785623398763 -13.3166676521898 0
394 3.7998942516111 9.19354975725832 2.03906501847133 0
395 9.19694300272898 3.7989251131603 1.98434612822903 0
396 3.74997172118958 4.17316991703468 -16.5556473668456 0
397 3.79610458961512 5.24504268644336 -15.241931263733 0
398 5.19558381495184 4.11638218527024 -14.9748197353558 0
399 4.51991257849257 5.81393686084664 -13.5304883076515 0
400 9.73488559288291 1.08881485931563 4.02317521150362 0
401 1.08996139097175 9.7343799290895 4.02682582803396 0
402 2.01477682558263 4.20913011530068 -17.6888550240612 0
403 3.2716716388976 1.43899953062973 -18.6789127133332 0
404 4.13071747110423 1.6373454162775 -17.9171731209708 0
405 2.12521812110637 2.62946837799499 -18.8222574615104 0
406 -6.86687699134679 6.86687699134819 -4.77158287003585 0
407 -6.64220321362529 6.64220321362583 -6.85923404989349 0
408 -6.33369318073326 6.33369318073352 -8.89239256548264 0
409 -5.60122850221108 5.59935456518314 -12.2104001112791 0
410 -2.78950758768332 3.54992875381755 -17.8456328843868 0
411 -2.4380401567598 9.58068186740444 3.01097668514018 0
412 -9.57840032920486 2.44243970572042 3.02571341498739 0
413 -9.08231473972306 4.1517376833696 -1.04810911091935 0
414 -4.02002902650039 9.14043151068174 -1.08051547815046 0
415 -9.10389371512572 3.77322053449995 -3.39524727919629 0
416 -3.75431320754497 9.11128120641036 -3.3998159464105 0
417 -8.83867107024063 3.6402254228717 -5.87423274403386 0
418 -3.6402254228706 8.83867107024109 -5.87423274403386 0
419 -8.47629508693838 3.50150630601882 -7.9729229741807 0
420 -3.50150630601844 8.47629508693854 -7.9729229741807 0
421 -7.79057006818385 3.61628389019799 -10.2429505198868 0
422 -3.61628389019782 7.79057006818393 -10.2429505198868 0
423 -7.20179793730375 3.12667433875716 -12.3867694011966 0
424 -3.14750137262169 7.12513875639502 -12.5420305870241 0
425 -9.79179441038423 1.9484620178674 -1.13887310916768 0
426 -1.92826631577875 9.79565669234702 -1.14350160666271 0
427 -2.18206629361454 6.49457253486535 -14.5683374864318 0
428 -4.94606350369534 8.67315865533585 1.11852538064339 0
429 -8.67910870050181 4.92577928704627 1.28026650378694 0
430 -4.45610936055071 8.81033042406117 3.17563674602395 0
431 -8.80616336499419 4.45997094063769 3.20009124726253 0
432 -2.2797975205875 5.12635252668221 -16.5557280766872 0
433 -7.04929042223437 7.04929042223974 -1.56845030002716 0
434 -8.14626474689102 5.69090350748642 -2.2378453405358 0
435 -5.6304903105493 8.20393053347249 -1.99309073026619 0
436 -5.47081176282415 8.11046916842216 -4.1427085457794 0
437 -8.11046916842048 5.47081176282665 -4.1427085457794 0
438 -7.88333522630829 5.26932385127982 -6.35208685708265 0
439 -5.26932385127879 7.88333522630897 -6.35208685708265 0
440 -9.44369043516332 2.00904227693648 -5.20786332166528 0
441 -2.00904227693527 9.44369043516358 -5.20786332166528 0
442 -5.20767531998381 7.4154015808389 -8.45977237436645 0
443 -7.41540158083861 5.20767531998423 -8.45977237436645 0
444 -9.1037636065526 1.82697438486312 -7.4252684242558 0
445 -1.82697438486266 9.10376360655269 -7.4252684242558 0
446 -6.98057229093976 6.98057229094298 -3.18949587357192 0
447 -4.90206150573019 6.58622421173613 -11.4177832571439 0
448 -6.55686083226883 4.69037681319046 -11.8335018276999 0
449 -8.64454530787722 1.72021431057356 -9.44726397339586 0
450 -1.72021431057341 8.64454530787725 -9.44726397339586 0
451 -8.09064541196002 1.68581780575802 -11.2604573874633 0
452 -1.59796515536356 8.03522789081311 -11.4684994842295 0
453 -3.11635385805286 9.49395432906549 0.782738344576856 0
454 -9.48581038009797 3.13894548156917 0.815898759803354 0
455 -6.57848526336888 2.24666734988064 -14.3772066074907 0
456 -1.19876730551172 7.25562195992659 -13.5526981700128 0
457 -6.45566019230853 7.63702351600399 -0.0359609479881739 0
458 -7.92922261124439 6.09145049623938 -0.294344241973591 0
459 -7.60266191078998 6.32656932965561 2.94893362915085 0
460 -6.03098243263506 7.81926086542448 3.15367114055257 0
461 -1.81215723553446 9.70103421475287 -3.22863520261693 0
462 -9.69991046168029 1.81883949731717 -3.2271101117775 0
463 -5.44333075946122 2.05479890536836 -16.2662782100394 0
464 -7.5053173918717 6.58513273296094 1.10677502059745 0
465 -6.57764382620736 7.48628434916576 1.66150334214761 0
466 -9.49254413634976 2.94537482929538 -2.20578596822543 0
467 -2.89955048196633 9.50601640110826 -2.21653710493603 0
468 -9.9038509769557 1.29339036954698 0.981584796574829 0
469 -1.28604477303992 9.90496299439643 0.975288513977247 0
470 -5.3014597697293 8.47539928567427 -0.498522851366634 0
471 -7.51562277506703 1.3300591912786 -12.9222841402887 0
472 -6.43336394934273 5.57205750015234 -10.5002863790076 0
473 -5.36331391499571 6.82814412114397 -9.92195781287148 0
474 -4.31785623398763 6.08462884676583 -13.3166676521898 0
475 -9.19354975725832 3.7998942516111 2.03906501847133 0
476 -3.7989251131603 9.19694300272898 1.98434612822903 0
477 -4.17316991703468 3.74997172118958 -16.5556473668456 0
478 -5.24504268644336 3.79610458961512 -15.241931263733 0
479 -4.11638218527024 5.19558381495184 -14.9748197353558 0
480 -5.81393686084664 4.51991257849257 -13.5304883076515 0
481 -1.08881485931563 9.73488559288291 4.02317521150362 0
482 -9.7343799290895 1.08996139097175 4.02682582803396 0
483 -4.20913011530068 2.01477682558263 -17.6888550240612 0
484 -1.43899953062973 3.2716716388976 -18.6789127133332 0
485 -1.6373454162775 4.13071747110423 -17.9171731209708 0
486 -2.62946837799499 2.12521812110637 -18.8222574615104 0
487 4.81605447907945 5.05600961242747 1.1956517263424 0
488 4.72406453386858 4.72406453386823 -5.07474308940834 0
489 4.52948392411066 4.52948392411056 -6.85509220877148 0
490 4.27663684263766 4.27663684263765 -8.55903638572999 0
491 3.91316070702455 3.91316070702455 -10.4101463029747 0
492 6.29915503781315 2.93627771089468 2.03031914186748 0
493 3.4423583581259 3.4423583581259 -12.2155785815266 0
494 2.89729068942199 2.97271734434076 -13.6883253061968 0
495 6.36713538830116 2.48900900023994 3.65451275556518 0
496 2.68503982665994 6.30069340330025 3.51247650474279 0
497 3.70470339781567 5.93904744488828 -0.130515811563362 0
498 5.93318529787121 3.71286063021714 0.265794486120623 0
499 1.75088293380968 6.72893677537487 -1.96672129757481 0
500 6.72893677537526 1.75088293380818 -1.96672129757481 0
501 2.66392987834087 6.2575801995535 -4.02452291680824 0
502 6.25758019955389 2.66392987833994 -4.02452291680824 0
503 3.02281283943227 5.53176260006434 -7.39108297064729 0
504 5.53176260006441 3.02281283943215 -7.39108297064729 0
505 5.47219502701701 2.21307363014212 -9.13781641683984 0
506 2.21307363014214 5.472195027017 -9.13781641683984 0
507 2.00521355335634 4.84115320957113 -11.2719087040529 0
508 4.84115320957113 2.00521355335633 -11.2719087040529 0
509 4.14294123203879 1.71605420761912 -13.0537004030114 0
510 1.71605420761912 4.14294123203879 -13.0537004030114 0
511 5.42446241273164 4.33896265656511 2.1012555176038 0
512 3.18858708927647 6.19065265017475 1.73218976764936 0
513 1.3945374592557 3.05023401028137 -14.9216570534698 0
514 3.0933320038825 1.7699750000468 -14.6317116761652 0
515 1.5030607670713 6.77088373906042 2.29874481205553 0
516 6.78969608210337 1.38924562695441 2.3918946869957 0
517 3.56919162203386 5.95307952002392 -2.20146402453277 0
518 5.94953628970382 3.57509476014584 -2.20146402453277 0
519 6.75251373501547 1.83937046010718 0.345801359038441 0
520 1.88555937819431 6.74062690318658 0.225409938822255 0
521 5.5079683191209 3.96958560228554 -4.13904039935656 0
522 3.96849284688917 5.50875570183518 -4.13904039935656 0
523 5.64042843894656 3.458751238788 -5.55002002600771 0
524 3.45856474441651 5.64054279439256 -5.55002002600771 0
525 5.5691256576775 3.98106568935844 3.54933482287051 0
526 4.35105858856258 5.32609444078732 3.16740758987426 0
527 1.1484352958457 6.72493144428249 -3.80627222539377 0
528 6.72493144428258 1.1484352958452 -3.80627222539377 0
529 4.8649076559055 4.86683825123344 -3.11630187836721 0
530 6.72402869007464 1.13523239973013 3.83889899922582 0
531 1.13523239973438 6.72402869007393 3.83889899922582 0
532 4.91490284404203 4.96833101332565 -0.969657060817098 0
533 1.72321389988892 6.37368420844151 -5.64698135318664 0
534 6.37367606900814 1.7232440050846 -5.64698135318664 0
535 1.43598357246197 6.14136700920544 -7.37484907426646 0
536 6.14136565266879 1.43598937404065 -7.37484907426646 0
537 2.74118915727955 6.43048703868786 -0.891383147217873 0
538 6.42435327499966 2.75553380467754 -0.891383147217873 0
539 1.98540799197356 1.1867394286037 -16.0450854191145 0
540 -5.05600961242747 4.81605447907945 1.1956517263424 0
541 -4.72406453386823 4.72406453386858 -5.07474308940834 0
542 -4.52948392411056 4.52948392411066 -6.85509220877148 0
543 -4.27663684263765 4.27663684263766 -8.55903638572999 0
544 -3.91316070702454 3.91316070702455 -10.4101463029747 0
545 -2.93627771089468 6.29915503781315 2.03031914186748 0
546 -3.4423583581259 3.4423583581259 -12.2155785815266 0
547 -2.97271734434076 2.89729068942199 -13.6883253061968 0
548 -2.48900900023994 6.36713538830116 3.65451275556518 0
549 -6.30069340330025 2.68503982665994 3.51247650474279 0
550 -5.93904744488828 3.70470339781567 -0.130515811563362 0
551 -3.71286063021714 5.93318529787121 0.265794486120623 0
552 -6.72893677537487 1.75088293380968 -1.96672129757481 0
553 -1.75088293380818 6.72893677537526 -1.96672129757481 0
554 -6.2575801995535 2.66392987834087 -4.02452291680824 0
555 -2.66392987833994 6.25758019955389 -4.02452291680824 0
556 -5.53176260006434 3.02281283943227 -7.39108297064729 0
557 -3.02281283943215 5.53176260006441 -7.39108297064729 0
558 -2.21307363014212 5.47219502701701 -9.13781641683984 0
559 -5.472195027017 2.21307363014214 -9.13781641683984 0
560 -4.84115320957113 2.00521355335634 -11.2719087040529 0
561 -2.00521355335633 4.84115320957113 -11.2719087040529 0
562 -1.71605420761912 4.14294123203879 -13.0537004030114 0
563 -4.14294123203879 1.71605420761912 -13.0537004030114 0
564 -4.33896265656511 5.42446241273164 2.1012555176038 0
565 -6.19065265017475 3.18858708927647 1.73218976764936 0
566 -3.05023401028137 1.3945374592557 -14.9216570534698 0
567 -1.7699750000468 3.0933320038825 -14.6317116761652 0
568 -6.77088373906042 1.5030607670713 2.29874481205553 0
569 -1.38924562695441 6.78969608210337 2.3918946869957 0
570 -5.95307952002392 3.56919162203386 -2.20146402453277 0
571 -3.57509476014584 5.94953628970382 -2.20146402453277 0
572 -1.83937046010718 6.75251373501547 0.345801359038441 0
573 -6.74062690318658 1.88555937819431 0.225409938822255 0
574 -3.96958560228554 5.5079683191209 -4.13904039935656 0
575 -5.50875570183518 3.96849284688917 -4.13904039935656 0
576 -3.458751238788 5.64042843894656 -5.55002002600771 0
577 -5.64054279439256 3.45856474441651 -5.55002002600771 0
578 -3.98106568935844 5.5691256576775 3.54933482287051 0
579 -5.32609444078732 4.35105858856258 3.16740758987426 0
580 -6.72493144428249 1.1484352958457 -3.80627222539377 0
581 -1.1484352958452 6.72493144428258 -3.80627222539377 0
582 -4.86683825123344 4.8649076559055 -3.11630187836721 0
583 -1.13523239973013 6.72402869007464 3.83889899922582 0
584 -6.72402869007393 1.13523239973438 3.83889899922582 0
585 -4.96833101332565 4.91490284404203 -0.969657060817098 0
586 -6.37368420844151 1.72321389988893 -5.64698135318664 0
587 -1.7232440050846 6.37367606900814 -5.64698135318664 0
588 -6.14136700920544 1.43598357246197 -7.37484907426646 0
589 -1.43598937404065 6.14136565266879 -7.37484907426646 0
590 -6.43048703868786 2.74118915727955 -0.891383147217873 0
591 -2.75553380467754 6.42435327499966 -0.891383147217873 0
592 -1.1867394286037 1.98540799197356 -16.0450854191145 0
593 -4.81605447907945 -5.05600961242747 1.1956517263424 0
594 -4.72406453386858 -4.72406453386823 -5.07474308940834 0
595 -4.52948392411066 -4.52948392411056 -6.85509220877148 0
596 -4.27663684263766 -4.27663684263765 -8.55903638572999 0
597 -3.91316070702455 -3.91316070702455 -10.4101463029747 0
598 -6.29915503781315 -2.93627771089468 2.03031914186748 0
599 -3.4423583581259 -3.4423583581259 -12.2155785815266 0
600 -2.89729068942199 -2.97271734434076 -13.6883253061968 0
601 -6.36713538830116 -2.48900900023994 3.65451275556518 0
602 -2.68503982665994 -6.30069340330025 3.51247650474279 0
603 -3.70470339781567 -5.93904744488828 -0.130515811563362 0
604 -5.93318529787121 -3.71286063021714 0.265794486120623 0
605 -1.75088293380968 -6.72893677537487 -1.96672129757481 0
606 -6.72893677537526 -1.75088293380818 -1.96672129757481 0
607 -2.66392987834087 -6.2575801995535 -4.02452291680824 0
608 -6.25758019955389 -2.66392987833994 -4.02452291680824 0
609 -3.02281283943227 -5.53176260006434 -7.39108297064729 0
610 -5.53176260006441 -3.02281283943215 -7.39108297064729 0
611 -5.47219502701701 -2.21307363014212 -9.13781641683984 0
612 -2.21307363014214 -5.472195027017 -9.13781641683984 0
613 -2.00521355335634 -4.84115320957113 -11.2719087040529 0
614 -4.84115320957113 -2.00521355335633 -11.2719087040529 0
615 -4.14294123203879 -1.71605420761912 -13.0537004030114 0
616 -1.71605420761912 -4.14294123203879 -13.0537004030114 0
617 -5.42446241273164 -4.33896265656511 2.1012555176038 0
618 -3.18858708927647 -6.19065265017475 1.73218976764936 0
619 -1.3945374592557 -3.05023401028137 -14.9216570534698 0
620 -3.0933320038825 -1.7699750000468 -14.6317116761652 0
621 -1.5030607670713 -6.77088373906042 2.29874481205553 0
622 -6.78969608210337 -1.38924562695441 2.3918946869957 0
623 -3.56919162203386 -5.95307952002392 -2.20146402453277 0
624 -5.94953628970382 -3.57509476014584 -2.20146402453277 0
625 -6.75251373501547 -1.83937046010718 0.345801359038441 0
626 -1.88555937819431 -6.74062690318658 0.225409938822255 0
627 -5.5079683191209 -3.96958560228554 -4.13904039935656 0
628 -3.96849284688917 -5.50875570183518 -4.13904039935656 0
629 -5.64042843894656 -3.458751238788 -5.55002002600771 0
630 -3.45856474441651 -5.64054279439256 -5.55002002600771 0
631 -5.5691256576775 -3.98106568935844 3.54933482287051 0
632 -4.35105858856258 -5.32609444078732 3.16740758987426 0
633 -1.1484352958457 -6.72493144428249 -3.80627222539377 0
634 -6.72493144428258 -1.1484352958452 -3.80627222539377 0
635 -4.8649076559055 -4.86683825123344 -3.11630187836721 0
636 -6.72402869007464 -1.13523239973013 3.83889899922582 0
637 -1.13523239973438 -6.72402869007393 3.83889899922582 0
638 -4.91490284404203 -4.96833101332565 -0.969657060817098 0
639 -1.72321389988892 -6.37368420844151 -5.64698135318664 0
640 -6.37367606900814 -1.7232440050846 -5.64698135318664 0
641 -1.43598357246197 -6.14136700920544 -7.37484907426646 0
642 -6.14136565266879 -1.43598937404065 -7.37484907426646 0
643 -2.74118915727955 -6.43048703868786 -0.891383147217873 0
644 -6.42435327499966 -2.75553380467754 -0.891383147217873 0
645 -1.98540799197356 -1.1867394286037 -16.0450854191145 0
646 5.05600961242747 -4.81605447907945 1.1956517263424 0
647 4.72406453386823 -4.72406453386858 -5.07474308940834 0
648 4.52948392411056 -4.52948392411066 -6.85509220877148 0
649 4.27663684263765 -4.27663684263766 -8.55903638572999 0
650 3.91316070702455 -3.91316070702455 -10.4101463029747 0
651 2.93627771089468 -6.29915503781315 2.03031914186748 0
652 3.4423583581259 -3.4423583581259 -12.2155785815266 0
653 2.97271734434076 -2.89729068942199 -13.6883253061968 0
654 2.48900900023994 -6.36713538830116 3.65451275556518 0
655 6.30069340330025 -2.68503982665994 3.51247650474279 0
656 5.93904744488828 -3.70470339781567 -0.130515811563362 0
657 3.71286063021714 -5.93318529787121 0.265794486120623 0
658 6.72893677537487 -1.75088293380968 -1.96672129757481 0
659 1.75088293380818 -6.72893677537526 -1.96672129757481 0
660 6.2575801995535 -2.66392987834087 -4.02452291680824 0
661 2.66392987833994 -6.25758019955389 -4.02452291680824 0
662 5.53176260006434 -3.02281283943227 -7.39108297064729 0
663 3.02281283943215 -5.53176260006441 -7.39108297064729 0
664 5.472195027017 -2.21307363014214 -9.13781641683984 0
665 2.21307363014212 -5.47219502701701 -9.13781641683984 0
666 2.00521355335633 -4.84115320957113 -11.2719087040529 0
667 4.84115320957113 -2.00521355335634 -11.2719087040529 0
668 1.71605420761912 -4.14294123203879 -13.0537004030114 0
669 4.14294123203879 -1.71605420761912 -13.0537004030114 0
670 4.33896265656511 -5.42446241273164 2.1012555176038 0
671 6.19065265017475 -3.18858708927647 1.73218976764936 0
672 3.05023401028137 -1.3945374592557 -14.9216570534698 0
673 1.7699750000468 -3.0933320038825 -14.6317116761652 0
674 6.77088373906042 -1.5030607670713 2.29874481205553 0
675 1.38924562695441 -6.78969608210337 2.3918946869957 0
676 5.95307952002392 -3.56919162203386 -2.20146402453277 0
677 3.57509476014584 -5.94953628970382 -2.20146402453277 0
678 1.83937046010718 -6.75251373501547 0.345801359038441 0
679 6.74062690318658 -1.88555937819431 0.225409938822255 0
680 3.96958560228554 -5.5079683191209 -4.13904039935656 0
681 5.50875570183518 -3.96849284688917 -4.13904039935656 0
682 3.458751238788 -5.64042843894656 -5.55002002600771 0
683 5.64054279439256 -3.45856474441651 -5.55002002600771 0
684 3.98106568935844 -5.5691256576775 3.54933482287051 0
685 5.32609444078732 -4.35105858856258 3.16740758987426 0
686 6.72493144428249 -1.1484352958457 -3.80627222539377 0
687 1.1484352958452 -6.72493144428258 -3.80627222539377 0
688 4.86683825123344 -4.8649076559055 -3.11630187836721 0
689 1.13523239973013 -6.72402869007464 3.83889899922582 0
690 6.72402869007393 -1.13523239973438 3.83889899922582 0
691 4.96833101332565 -4.91490284404203 -0.969657060817098 0
692 6.37368420844151 -1.72321389988892 -5.64698135318664 0
693 1.7232440050846 -6.37367606900814 -5.64698135318664 0
694 6.14136700920544 -1.43598357246197 -7.37484907426646 0
695 1.43598937404065 -6.14136565266879 -7.37484907426646 0
696 6.43048703868786 -2.74118915727955 -0.891383147217873 0
697 2.75553380467754 -6.42435327499966 -0.891383147217873 0
698 1.1867394286037 -1.98540799197356 -16.0450854191145 0
699 6.29447797701354 4.96537791670634 5 7
700 -4.96537791670634 6.29447797701354 5 7
701 -6.29447797701354 -4.96537791670634 5 7
702 4.96537791670634 -6.29447797701354 5 7
703 7.96192045763452 0.939815665503015 5 7
704 -7.96192045763452 -0.939815665503016 5 7
705 0.939815665503015 -7.96192045763452 5 7
706 -0.939815665503015 7.96192045763452 5 7
707 7.95248200316002 -0.959123436335648 5 7
708 -0.959123436335648 -7.95248200316002 5 7
709 0.959123436335649 7.95248200316002 5 7
710 -7.95248200316002 0.959123436335648 5 7
711 4.94505126588237 6.30145663751693 5 7
712 -4.94505126588237 -6.30145663751693 5 7
713 6.30145663751693 -4.94505126588237 5 7
714 -6.30145663751693 4.94505126588237 5 7
715 -3.07400341766634 7.42130074173166 5 7
716 7.42130074173166 3.07400341766634 5 7
717 -7.42130074173166 -3.07400341766634 5 7
718 3.07400341766634 -7.42130074173166 5 7
719 -7.42130074172421 3.07400341767969 5 7
720 3.07400341767969 7.42130074172421 5 7
721 -3.07400341767969 -7.42130074172421 5 7
722 7.42130074172421 -3.07400341767969 5 7
723 0 0 -17 7
724 6.69038456852373 0 5 7
725 4.09667902345372e-16 6.69038456852373 5 7
726 -6.69038456852373 0 5 7
727 0 -6.69038456852373 5 7
728 1.78651109911665 0 -16.4370296666162 7
729 3.17401721252169 0 -15.1519532372617 7
730 4.21744627445233 0 -13.5681194916833 7
731 5.01990642455052 0 -11.8479791717446 7
732 5.64429543269395 0 -10.0549688202034 7
733 6.12759911873596 0 -8.21867074581688 7
734 6.49247998747539 0 -6.3551141930602 7
735 6.75322271066545 0 -4.47410028083183 7
736 6.91877115435364 0 -2.58229865664993 7
737 6.99431909960287 0 -0.68475522539999 7
738 6.98212089236046 0 1.21425619333839 7
739 6.88181728586782 0 3.11064910181337 7
740 1.09392254958721e-16 1.78651109911665 -16.4370296666162 7
741 1.94352500987665e-16 3.17401721252169 -15.1519532372617 7
742 2.58244104029199e-16 4.21744627445233 -13.5681194916833 7
743 3.07380616742251e-16 5.01990642455052 -11.8479791717446 7
744 3.45613416754533e-16 5.64429543269395 -10.0549688202034 7
745 3.75207232360907e-16 6.12759911873596 -8.21867074581688 7
746 3.97549741759499e-16 6.49247998747539 -6.3551141930602 7
747 4.13515628827283e-16 6.75322271066545 -4.47410028083183 7
748 4.23652547410611e-16 6.91877115435364 -2.58229865664993 7
749 4.28278524877193e-16 6.99431909960287 -0.68475522539999 7
750 4.27531600104455e-16 6.98212089236046 1.21425619333839 7
751 4.21389775572748e-16 6.88181728586782 3.11064910181337 7
752 6.46241524254399 1.73159894538994 5 7
753 5.79404299743334 3.34519228425424 5 7
754 4.730816297158 4.73081629713993 5 7
755 3.34519228426967 5.79404299742444 5 7
756 1.73159894539717 6.46241524254205 5 7
757 -1.78651109911665 0 -16.4370296666162 7
758 -3.17401721252169 0 -15.1519532372617 7
759 -4.21744627445233 0 -13.5681194916833 7
760 -5.01990642455052 0 -11.8479791717446 7
761 -5.64429543269395 0 -10.0549688202034 7
762 -6.12759911873596 0 -8.21867074581688 7
763 -6.49247998747539 0 -6.3551141930602 7
764 -6.75322271066545 0 -4.47410028083183 7
765 -6.91877115435364 0 -2.58229865664993 7
766 -6.99431909960287 0 -0.68475522539999 7
767 -6.98212089236046 0 1.21425619333839 7
768 -6.88181728586782 0 3.11064910181337 7
769 -1.73159894538994 6.46241524254399 5 7
770 -3.34519228425424 5.79404299743334 5 7
771 -4.73081629713993 4.730816297158 5 7
772 -5.79404299742444 3.34519228426967 5 7
773 -6.46241524254205 1.73159894539717 5 7
774 0 -1.78651109911665 -16.4370296666162 7
775 0 -3.17401721252169 -15.1519532372617 7
776 0 -4.21744627445233 -13.5681194916833 7
777 0 -5.01990642455052 -11.8479791717446 7
778 0 -5.64429543269395 -10.0549688202034 7
779 0 -6.12759911873596 -8.21867074581688 7
780 0 -6.49247998747539 -6.3551141930602 7
781 0 -6.75322271066545 -4.47410028083183 7
782 0 -6.91877115435364 -2.58229865664993 7
783 0 -6.99431909960287 -0.68475522539999 7
784 0 -6.98212089236046 1.21425619333839 7
785 0 -6.88181728586782 3.11064910181337 7
786 -6.46241524254399 -1.73159894538994 5 7
787 -5.79404299743334 -3.34519228425424 5 7
788 -4.730816297158 -4.73081629713993 5 7
789 -3.34519228426967 -5.79404299742444 5 7
790 -1.73159894539717 -6.46241524254205 5 7
791 1.73159894538994 -6.46241524254399 5 7
792 3.34519228425424 -5.79404299743334 5 7
793 4.73081629713993 -4.730816297158 5 7
794 5.79404299742444 -3.34519228426967 5 7
795 6.46241524254205 -1.73159894539717 5 7
796 4.81605447907945 5.05600961242747 1.1956517263424 7
797 4.72406453386858 4.72406453386823 -5.07474308940834 7
798 4.52948392411066 4.52948392411056 -6.85509220877148 7
799 4.27663684263766 4.27663684263765 -8.55903638572999 7
800 3.91316070702455 3.91316070702455 -10.4101463029747 7
801 6.29915503781315 2.93627771089468 2.03031914186748 7
802 3.4423583581259 3.4423583581259 -12.2155785815266 7
803 2.89729068942199 2.97271734434076 -13.6883253061968 7
804 6.36713538830116 2.48900900023994 3.65451275556518 7
805 2.68503982665994 6.30069340330025 3.51247650474279 7
806 3.70470339781567 5.93904744488828 -0.130515811563362 7
807 5.93318529787121 3.71286063021714 0.265794486120623 7
808 1.75088293380968 6.72893677537487 -1.96672129757481 7
809 6.72893677537526 1.75088293380818 -1.96672129757481 7
810 2.66392987834087 6.2575801995535 -4.02452291680824 7
811 6.25758019955389 2.66392987833994 -4.02452291680824 7
812 3.02281283943227 5.53176260006434 -7.39108297064729 7
813 5.53176260006441 3.02281283943215 -7.39108297064729 7
814 5.47219502701701 2.21307363014212 -9.13781641683984 7
815 2.21307363014214 5.472195027017 -9.13781641683984 7
816 2.00521355335634 4.84115320957113 -11.2719087040529 7
817 4.84115320957113 2.00521355335633 -11.2719087040529 7
818 4.14294123203879 1.71605420761912 -13.0537004030114 7
819 1.71605420761912 4.14294123203879 -13.0537004030114 7
820 5.42446241273164 4.33896265656511 2.1012555176038 7
821 3.18858708927647 6.19065265017475 1.73218976764936 7
822 1.3945374592557 3.05023401028137 -14.9216570534698 7
823 3.0933320038825 1.7699750000468 -14.6317116761652 7
824 1.5030607670713 6.77088373906042 2.29874481205553 7
825 6.78969608210337 1.38924562695441 2.3918946869957 7
826 3.56919162203386 5.95307952002392 -2.20146402453277 7
827 5.94953628970382 3.57509476014584 -2.20146402453277 7
828 6.75251373501547 1.83937046010718 0.345801359038441 7
829 1.88555937819431 6.74062690318658 0.225409938822255 7
830 5.5079683191209 3.96958560228554 -4.13904039935656 7
831 3.96849284688917 5.50875570183518 -4.13904039935656 7
832 5.64042843894656 3.458751238788 -5.55002002600771 7
833 3.45856474441651 5.64054279439256 -5.55002002600771 7
834 5.5691256576775 3.98106568935844 3.54933482287051 7
835 4.35105858856258 5.32609444078732 3.16740758987426 7
836 1.1484352958457 6.72493144428249 -3.80627222539377 7
837 6.72493144428258 1.1484352958452 -3.80627222539377 7
838 4.8649076559055 4.86683825123344 -3.11630187836721 7
839 6.72402869007464 1.13523239973013 3.83889899922582 7
840 1.13523239973438 6.72402869007393 3.83889899922582 7
841 4.91490284404203 4.96833101332565 -0.969657060817098 7
842 1.72321389988892 6.37368420844151 -5.64698135318664 7
843 6.37367606900814 1.7232440050846 -5.64698135318664 7
844 1.43598357246197 6.14136700920544 -7.37484907426646 7
845 6.14136565266879 1.43598937404065 -7.37484907426646 7
846 2.74118915727955 6.43048703868786 -0.891383147217873 7
847 6.42435327499966 2.75553380467754 -0.891383147217873 7
848 1.98540799197356 1.1867394286037 -16.0450854191145 7
849 -5.05600961242747 4.81605447907945 1.1956517263424 7
850 -4.72406453386823 4.72406453386858 -5.07474308940834 7
851 -4.52948392411056 4.52948392411066 -6.85509220877148 7
852 -4.27663684263765 4.27663684263766 -8.55903638572999 7
853 -3.91316070702454 3.91316070702455 -10.4101463029747 7
854 -2.93627771089468 6.29915503781315 2.03031914186748 7
855 -3.4423583581259 3.4423583581259 -12.2155785815266 7
856 -2.97271734434076 2.89729068942199 -13.6883253061968 7
857 -2.48900900023994 6.36713538830116 3.65451275556518 7
858 -6.30069340330025 2.68503982665994 3.51247650474279 7
859 -5.93904744488828 3.70470339781567 -0.130515811563362 7
860 -3.71286063021714 5.93318529787121 0.265794486120623 7
861 -6.72893677537487 1.75088293380968 -1.96672129757481 7
862 -1.75088293380818 6.72893677537526 -1.96672129757481 7
863 -6.2575801995535 2.66392987834087 -4.02452291680824 7
864 -2.66392987833994 6.25758019955389 -4.02452291680824 7
865 -5.53176260006434 3.02281283943227 -7.39108297064729 7
866 -3.02281283943215 5.53176260006441 -7.39108297064729 7
867 -2.21307363014212 5.47219502701701 -9.13781641683984 7
868 -5.472195027017 2.21307363014214 -9.13781641683984 7
869 -4.84115320957113 2.00521355335634 -11.2719087040529 7
870 -2.00521355335633 4.84115320957113 -11.2719087040529 7
871 -1.71605420761912 4.14294123203879 -13.0537004030114 7
872 -4.14294123203879 1.71605420761912 -13.0537004030114 7
873 -4.33896265656511 5.42446241273164 2.1012555176038 7
874 -6.19065265017475 3.18858708927647 1.73218976764936 7
875 -3.05023401028137 1.3945374592557 -14.9216570534698 7
876 -1.7699750000468 3.0933320038825 -14.6317116761652 7
877 -6.77088373906042 1.5030607670713 2.29874481205553 7
878 -1.38924562695441 6.78969608210337 2.3918946869957 7
879 -5.95307952002392 3.56919162203386 -2.20146402453277 7
880 -3.57509476014584 5.94953628970382 -2.20146402453277 7
881 -1.83937046010718 6.75251373501547 0.345801359038441 7
882 -6.74062690318658 1.88555937819431 0.225409938822255 7
883 -3.96958560228554 5.5079683191209 -4.13904039935656 7
884 -5.50875570183518 3.96849284688917 -4.13904039935656 7
885 -3.458751238788 5.64042843894656 -5.55002002600771 7
886 -5.64054279439256 3.45856474441651 -5.55002002600771 7
887 -3.98106568935844 5.5691256576775 3.54933482287051 7
888 -5.32609444078732 4.35105858856258 3.16740758987426 7
889 -6.72493144428249 1.1484352958457 -3.80627222539377 7
890 -1.1484352958452 6.72493144428258 -3.80627222539377 7
891 -4.86683825123344 4.8649076559055 -3.11630187836721 7
892 -1.13523239973013 6.72402869007464 3.83889899922582 7
893 -6.72402869007393 1.13523239973438 3.83889899922582 7
894 -4.96833101332565 4.91490284404203 -0.969657060817098 7
895 -6.37368420844151 1.72321389988893 -5.64698135318664 7
896 -1.7232440050846 6.37367606900814 -5.64698135318664 7
897 -6.14136700920544 1.43598357246197 -7.37484907426646 7
898 -1.43598937404065 6.14136565266879 -7.37484907426646 7
899 -6.43048703868786 2.74118915727955 -0.891383147217873 7
900 -2.75553380467754 6.42435327499966 -0.891383147217873 7
901 -1.1867394286037 1.98540799197356 -16.0450854191145 7
902 -4.81605447907945 -5.05600961242747 1.1956517263424 7
903 -4.72406453386858 -4.72406453386823 -5.07474308940834 7
904 -4.52948392411066 -4.52948392411056 -6.85509220877148 7
905 -4.27663684263766 -4.27663684263765 -8.55903638572999 7
906 -3.91316070702455 -3.91316070702455 -10.4101463029747 7
907 -6.29915503781315 -2.93627771089468 2.03031914186748 7
908 -3.4423583581259 -3.4423583581259 -12.2155785815266 7
909 -2.89729068942199 -2.97271734434076 -13.6883253061968 7
910 -6.36713538830116 -2.48900900023994 3.65451275556518 7
911 -2.68503982665994 -6.30069340330025 3.51247650474279 7
912 -3.70470339781567 -5.93904744488828 -0.130515811563362 7
913 -5.93318529787121 -3.71286063021714 0.265794486120623 7
914 -1.75088293380968 -6.72893677537487 -1.96672129757481 7
915 -6.72893677537526 -1.75088293380818 -1.96672129757481 7
916 -2.66392987834087 -6.2575801995535 -4.02452291680824 7
917 -6.25758019955389 -2.66392987833994 -4.02452291680824 7
918 -3.02281283943227 -5.53176260006434 -7.39108297064729 7
919 -5.53176260006441 -3.02281283943215 -7.39108297064729 7
920 -5.47219502701701 -2.21307363014212 -9.13781641683984 7
921 -2.21307363014214 -5.472195027017 -9.13781641683984 7
922 -2.00521355335634 -4.84115320957113 -11.2719087040529 7
923 -4.84115320957113 -2.00521355335633 -11.2719087040529 7
924 -4.14294123203879 -1.71605420761912 -13.0537004030114 7
925 -1.71605420761912 -4.14294123203879 -13.0537004030114 7
926 -5.42446241273164 -4.33896265656511 2.1012555176038 7
927 -3.18858708927647 -6.19065265017475 1.73218976764936 7
928 -1.3945374592557 -3.05023401028137 -14.9216570534698 7
929 -3.0933320038825 -1.7699750000468 -14.6317116761652 7
930 -1.5030607670713 -6.77088373906042 2.29874481205553 7
931 -6.78969608210337 -1.38924562695441 2.3918946869957 7
932 -3.56919162203386 -5.95307952002392 -2.20146402453277 7
933 -5.94953628970382 -3.57509476014584 -2.20146402453277 7
934 -6.75251373501547 -1.83937046010718 0.345801359038441 7
935 -1.88555937819431 -6.74062690318658 0.225409938822255 7
936 -5.5079683191209 -3.96958560228554 -4.13904039935656 7
937 -3.96849284688917 -5.50875570183518 -4.13904039935656 7
938 -5.64042843894656 -3.458751238788 -5.55002002600771 7
939 -3.45856474441651 -5.64054279439256 -5.55002002600771 7
940 -5.5691256576775 -3.98106568935844 3.54933482287051 7
941 -4.35105858856258 -5.32609444078732 3.16740758987426 7
942 -1.1484352958457 -6.72493144428249 -3.80627222539377 7
943 -6.72493144428258 -1.1484352958452 -3.80627222539377 7
944 -4.8649076559055 -4.86683825123344 -3.11630187836721 7
945 -6.72402869007464 -1.13523239973013 3.83889899922582 7
946 -1.13523239973438 -6.72402869007393 3.83889899922582 7
947 -4.91490284404203 -4.96833101332565 -0.969657060817098 7
948 -1.72321389988892 -6.37368420844151 -5.64698135318664 7
949 -6.37367606900814 -1.7232440050846 -5.64698135318664 7
950 -1.43598357246197 -6.14136700920544 -7.37484907426646 7
951 -6.14136565266879 -1.43598937404065 -7.37484907426646 7
952 -2.74118915727955 -6.43048703868786 -0.891383147217873 7
953 -6.42435327499966 -2.75553380467754 -0.891383147217873 7
954 -1.98540799197356 -1.1867394286037 -16.0450854191145 7
955 5.05600961242747 -4.81605447907945 1.1956517263424 7
956 4.72406453386823 -4.72406453386858 -5.07474308940834 7
957 4.52948392411056 -4.52948392411066 -6.85509220877148 7
958 4.27663684263765 -4.27663684263766 -8.55903638572999 7
959 3.91316070702455 -3.91316070702455 -10.4101463029747 7
960 2.93627771089468 -6.29915503781315 2.03031914186748 7
961 3.4423583581259 -3.4423583581259 -12.2155785815266 7
962 2.97271734434076 -2.89729068942199 -13.6883253061968 7
963 2.48900900023994 -6.36713538830116 3.65451275556518 7
964 6.30069340330025 -2.68503982665994 3.51247650474279 7
965 5.93904744488828 -3.70470339781567 -0.130515811563362 7
966 3.71286063021714 -5.93318529787121 0.265794486120623 7
967 6.72893677537487 -1.75088293380968 -1.96672129757481 7
968 1.75088293380818 -6.72893677537526 -1.96672129757481 7
969 6.2575801995535 -2.66392987834087 -4.02452291680824 7
970 2.66392987833994 -6.25758019955389 -4.02452291680824 7
971 5.53176260006434 -3.02281283943227 -7.39108297064729 7
972 3.02281283943215 -5.53176260006441 -7.39108297064729 7
973 5.472195027017 -2.21307363014214 -9.13781641683984 7
974 2.21307363014212 -5.47219502701701 -9.13781641683984 7
975 2.00521355335633 -4.84115320957113 -11.2719087040529 7
976 4.84115320957113 -2.00521355335634 -11.2719087040529 7
977 1.71605420761912 -4.14294123203879 -13.0537004030114 7
978 4.14294123203879 -1.71605420761912 -13.0537004030114 7
979 4.33896265656511 -5.42446241273164 2.1012555176038 7
980 6.19065265017475 -3.18858708927647 1.73218976764936 7
981 3.05023401028137 -1.3945374592557 -14.9216570534698 7
982 1.7699750000468 -3.0933320038825 -14.6317116761652 7
983 6.77088373906042 -1.5030607670713 2.29874481205553 7
984 1.38924562695441 -6.78969608210337 2.3918946869957 7
985 5.95307952002392 -3.56919162203386 -2.20146402453277 7
986 3.57509476014584 -5.94953628970382 -2.20146402453277 7
987 1.83937046010718 -6.75251373501547 0.345801359038441 7
988 6.74062690318658 -1.88555937819431 0.225409938822255 7
989 3.96958560228554 -5.5079683191209 -4.13904039935656 7
990 5.50875570183518 -3.96849284688917 -4.13904039935656 7
991 3.458751238788 -5.64042843894656 -5.55002002600771 7
992 5.64054279439256 -3.45856474441651 -5.55002002600771 7
993 3.98106568935844 -5.5691256576775 3.54933482287051 7
994 5.32609444078732 -4.35105858856258 3.16740758987426 7
995 6.72493144428249 -1.1484352958457 -3.80627222539377 7
996 1.1484352958452 -6.72493144428258 -3.80627222539377 7
997 4.86683825123344 -4.8649076559055 -3.11630187836721 7
998 1.13523239973013 -6.72402869007464 3.83889899922582 7
999 6.72402869007393 -1.13523239973438 3.83889899922582 7
1000 4.96833101332565 -4.91490284404203 -0.969657060817098 7
1001 6.37368420844151 -1.72321389988892 -5.64698135318664 7
1002 1.7232440050846 -6.37367606900814 -5.64698135318664 7
1003 6.14136700920544 -1.43598357246197 -7.37484907426646 7
1004 1.43598937404065 -6.14136565266879 -7.37484907426646 7
1005 6.43048703868786 -2.74118915727955 -0.891383147217873 7
1006 2.75553380467754 -6.42435327499966 -0.891383147217873 7
1007 1.1867394286037 -1.98540799197356 -16.0450854191145 7
